<svg width="256" height="256" xmlns="http://www.w3.org/2000/svg" preserveAspectRatio="xMidYMid"><path d="M128 0C57.3 0 0 57.3 0 128s57.3 128 128 128 128-57.3 128-128S198.7 0 128 0Z" fill="#40B3E0"/><path d="M190.28 73.63 167.42 188.9s-3.2 8-11.99 4.15l-52.76-40.44-19.18-9.28-32.3-10.87s-4.95-1.76-5.43-5.6c-.48-3.83 5.6-5.9 5.6-5.9l128.37-50.37s10.55-4.63 10.55 3.04" fill="#FFF"/><path d="M98.62 187.6s-1.54-.14-3.46-6.22c-1.92-6.07-11.67-38.05-11.67-38.05l77.54-49.24s4.47-2.71 4.31 0c0 0 .8.48-1.6 2.72-2.4 2.24-60.9 54.84-60.9 54.84" fill="#D2E5F1"/><path d="m122.9 168.12-20.87 19.02s-1.63 1.24-3.41.46l4-35.34" fill="#B5CFE4"/></svg>