<svg xmlns="http://www.w3.org/2000/svg" viewBox="0 0 512 512" xml:space="preserve"><path d="M307.2 0H204.8C105.96 0 25.56 80.4 25.56 179.22v76.81A179.3 179.3 0 0 0 127.98 418v85.54c0 7.43 9.3 11.31 14.57 6.04l74.31-74.31h90.35c98.82 0 179.22-80.4 179.22-179.23v-76.8C486.43 80.4 406.03 0 307.2 0z" fill="#665cac"/><path d="M153.59 418A179.3 179.3 0 0 1 51.17 256.02v-76.8C51.17 80.4 131.57 0 230.4 0h-25.6C105.96 0 25.56 80.4 25.56 179.22v76.81A179.3 179.3 0 0 0 127.98 418v85.54c0 7.43 9.3 11.31 14.57 6.04l11.04-11.04V418z" fill="#523494"/><path d="m384.85 318.1-7.67-41.57a8.54 8.54 0 0 0-6.72-6.82l-60.35-12.06c-2.8-.56-5.69.31-7.7 2.33l-24.53 24.52c-41.3-18.51-64.23-41.49-84.4-84.57l24.44-24.44a8.54 8.54 0 0 0 2.33-7.7l-12.07-60.35a8.54 8.54 0 0 0-6.82-6.72l-41.56-7.67a8.55 8.55 0 0 0-3.44.07 59.55 59.55 0 0 0-28.96 16c-13.8 13.8-19.08 33.93-15.26 58.23 6.42 40.81 26.41 97.6 63.3 134.63l.5.5c37 36.86 93.8 56.85 134.6 63.27a95.4 95.4 0 0 0 14.84 1.22c17.7 0 32.52-5.59 43.4-16.47a59.57 59.57 0 0 0 16-28.96c.26-1.13.28-2.3.07-3.44z" fill="#fff"/><g fill="#e5e5e5"><path d="m209.57 183.84 8.35-8.35-8.35 8.35zM341.47 350.87c-4.75 0-9.7-.4-14.84-1.21-40.8-6.42-97.6-26.41-134.6-63.27l-.5-.5c-36.89-37.04-56.88-93.82-63.3-134.63-3.09-19.63-.23-36.55 8.26-49.6a59.76 59.76 0 0 0-9.1 7.45c-13.8 13.8-19.08 33.94-15.25 58.24 6.42 40.81 26.4 97.6 63.3 134.63l.5.5c37 36.86 93.8 56.85 134.6 63.27a95.4 95.4 0 0 0 14.84 1.21c17.7 0 32.52-5.58 43.4-16.46a59.8 59.8 0 0 0 7.46-9.1c-9.64 6.27-21.38 9.47-34.77 9.47z"/></g><g fill="#fff"><path d="M273.07 145.09a8.53 8.53 0 0 0 0 17.06 34.18 34.18 0 0 1 34.14 34.14c0 4.65 3.88 8.54 8.53 8.54s8.53-3.89 8.53-8.54a51.26 51.26 0 0 0-51.2-51.2z"/><path d="M273.07 110.95c-3.16 0-6.34.17-9.47.52a8.53 8.53 0 1 0 1.87 16.96 68.35 68.35 0 0 1 75.46 75.46 8.62 8.62 0 0 0 7.54 9.42c4.63.5 8.91-2.92 9.42-7.55.35-3.13.52-6.31.52-9.47 0-47.06-38.28-85.34-85.34-85.34z"/><path d="M273.07 76.81c-3.05 0-6.14.12-9.18.35a8.54 8.54 0 0 0 1.29 17.02c2.61-.2 5.27-.3 7.89-.3 56.47 0 102.41 45.94 102.41 102.41 0 8-.92 15.95-2.74 23.64a8.61 8.61 0 0 0 6.05 10.2 8.61 8.61 0 0 0 10.56-6.27c2.12-8.98 3.2-18.26 3.2-27.57 0-65.88-53.6-119.48-119.48-119.48z"/></g></svg>