<svg class="bg" height="770" viewBox="0 0 1400 770" preserveAspectRatio="none" fill="none" xmlns="http://www.w3.org/2000/svg"><mask id="a" mask-type="alpha" maskUnits="userSpaceOnUse" x="0" y="0" width="1400" height="770"><path fill="#FFF" d="M0 0h1400v770H0z"/></mask><g mask="url(#a)" fill="#F0F4F9"><path opacity=".5" d="M-296.27 171.95C-175.82 30.7-104.66-218.42 239.75-190.2 584.15-161.99 450.4-239 820.94-239 1593-239 1488-34 1470.42 528.33c-10.71 342.68-428.73 182.4-733.28 232.56-304.55 50.15-709.07-120.63-822-254.05-112.94-133.42-331.86-193.63-211.4-334.89Z"/><path d="M1400-95.03H0V562.1c-40.13 13.24-55.67 33.2-28.09 66.31C37.38 707 183.36 707.9 404.77 709.27c52.5.32 109.24.67 170.15 2.1 62.19 1.44 120.03 4.91 176.63 8.3 163.55 9.81 316.76 19 534.56-22.96 132.75-25.57 142.14-44.08 113.89-63.56V-95.03Z"/></g></svg>
