<svg width="467" height="249" fill="none" xmlns="http://www.w3.org/2000/svg"><path d="M360.37 237.75c-3.33 4.33-7.26 7.55-6.4 9 0 0 1.78 1.3 6.68 1.3 8.4 0 16.67-.64 15.3-1.5-1.87-1.17-7.31-1.6-12.51-3.4-1.29-.44 2.81-2.93 1.7-3.34-2.32-.84-4.13-1.57-4.77-2.06ZM446.97 246.5s1.1 1.55 5.34 1.55c7.27 0 14.84-.99 13.67-1.73-1.63-1.01-14.36-3.67-14.36-3.67l-2.86-3.55-4.84 2.68 3.05 4.72Z" fill="#002E4F"/><path d="M423.94 139.4c-5.21 0-9.15-1.04-9.48-1.13a5.1 5.1 0 0 1 2.67-9.85c.18.05 11.65 2.99 18.35-2.76 4.48-3.85 6.19-11.1 5.06-21.54l-.35-3.34 10.31-5.84a5.1 5.1 0 1 1 5.04 8.88l-4.57 2.58c.72 12.3-2.27 21.4-8.9 27.05-5.6 4.77-12.58 5.95-18.13 5.95Z" fill="#00A4E2"/><path d="M441.6 111.09c-.2 7.42-2.16 12.79-5.9 16-7.35 6.3-19.94 3.09-20.15 3.03a5.6 5.6 0 0 0-2.94 10.81c.37.1 4.7 2.26 10.41 2.06 21.72-.77 34.82-19.5 35.06-30.42l-16.48-1.48Z" fill="#E1F3F6"/><path d="M411.75 85.11c-1.95-.87-3.86-1.81-5.74-2.8-18 10.24-40.98 23.37-41.43 23.83 0 0 11.42 18.19 12.15 18.92.47.46 28.8-19.86 49.18-34.58-4.7-1.82-9.55-3.3-14.16-5.37Z" fill="#008DC4"/><path d="M412.04 84.59c4.71 2.08 9.66 3.59 14.45 5.47 11.22-8.11 19.9-14.42 19.9-14.42l-19.18-5.39-20.6 11.71c1.78.93 3.6 1.82 5.43 2.63Z" fill="#00AFE2"/><path d="m378.98 60.71 11.3 30.57 22.07 8.1-27.96-51.08-5.4 12.41ZM413.55 106.89h-16.36l14.56 25.42 22.19 9.36-20.4-34.78Z" fill="#006091"/><path d="m383.42 55.48-1.41.83-3.83 59.31 30.14-17.66-24.9-42.48Zm50.52 86.19-13.02-22.21-55.7 32.65-10.94-18.68 6.87-111.08 25.03-14.67 45.05 76.85 15.16-8.89 12.6 21.5-15.16 8.89 13.02 22.2-22.91 13.44Z" fill="#0076AD"/><path d="m335.76 128.34 18.52 5.09 10.95 18.68-19.56-4.96-9.9-18.8Z" fill="#008DC4"/><path d="m335.76 128.34 18.52 5.09 6.87-111.08-16.98-4.06-8.4 110.05Z" fill="#00AFE2"/><path d="m344.17 18.29 16.98 4.07 25.03-14.68-17.2-5-24.81 15.61Z" fill="#00D2FD"/><path d="M381.41 172.6s2.73 29.36 2.73 39.64c0 0-21.38 16.66-26.61 25.37 2.25 1.71 6.69 3.98 9.6 3.9 14.26-13.63 29.91-23.34 29.91-23.34s6.76-19.59 8.86-36.17l-24.49-9.4Z" fill="#002E4F"/><path d="M396.65 173.99c4.8.03 9.73-.8 13.87-3.04-1.4-5.86 1.57-23.16 5.28-32.4 0 0 2.93-6.44.88-8.41-7.6-7.31-14.07-6.72-16.08-6.8-6.98 5.9-19.97 23.28-19.45 46.26 3.59 3.76 10.87 4.36 15.5 4.39Z" fill="#E1F3F6"/><path d="M443.8 242.59c2.77-.78 5.44-2.06 7.15-4.34-8.25-13.38-38.51-62.55-40.15-66.4l-.12-.32c-4.44 2.4-9.75 3.24-14.89 3.04-4.48-.17-10.96-.8-14.61-4.11 0 .23 0 .47.02.7.63 12.84 43.2 55.63 59.95 72a22 22 0 0 0 2.64-.57Z" fill="#00396A"/><path d="M355.91 160.68c-1.18 0-2.31-.17-3.4-.53-2.25-.75-5.23-2.65-6.63-7.4a5.1 5.1 0 1 1 9.78-2.9c.1.32.18.52.25.64.54.02 2.56-.16 7.48-3.05 4.4-2.58 9.6-6.43 14.62-10.14 8.5-6.29 16.52-12.23 23.15-14.32a5.1 5.1 0 1 1 3.07 9.73c-5 1.58-12.7 7.28-20.15 12.79-10.9 8.07-20.52 15.18-28.17 15.18Z" fill="#00A4E2"/><path d="M365.46 156.87c-.63-3-1.28-6.33-3.18-8.8-4.12 2.28-5.87 2.44-6.37 2.42a3.55 3.55 0 0 1-.25-.64 5.1 5.1 0 1 0-9.78 2.9c1.4 4.75 4.38 6.65 6.63 7.4 1.09.36 2.22.53 3.4.53 2.97 0 6.23-1.07 9.75-2.85l-.2-.96Z" fill="#00A4E2"/><path d="M407.56 126.3a5.1 5.1 0 0 0-6.4-3.32c-6.63 2.1-14.65 8.03-23.15 14.32-5.03 3.71-10.22 7.56-14.62 10.14l-.58.34c1.9 2.52 5.21 14.95 5.27 15.23 5.4-2.83 31.36-22.58 36.99-28.55 1.93-2.05 3.34-5.47 2.49-8.16Z" fill="#E1F3F6"/><path d="M348.7 156.56c-.3 0-.6-.1-.87-.28-4-2.86-6.1-8.37-6.18-8.6a1.5 1.5 0 0 1 2.8-1.05c.03.05 1.87 4.89 5.12 7.2a1.5 1.5 0 0 1-.87 2.73Z" fill="#00A4E2"/><path d="M348.7 152.9a1.5 1.5 0 0 1-1.23-.64c-1.91-2.7-3.45-9.16-3.62-9.88a1.5 1.5 0 0 1 2.93-.68c.42 1.82 1.81 6.94 3.15 8.83a1.5 1.5 0 0 1-1.23 2.37Z" fill="#00A4E2"/><path d="M350.77 152.06a1.5 1.5 0 0 1-1.39-.94c-1.38-3.37-1.91-10.44-1.93-10.74a1.5 1.5 0 0 1 2.99-.22c.14 1.91.73 7.4 1.72 9.83a1.5 1.5 0 0 1-1.39 2.07Z" fill="#00A4E2"/><path d="M353.02 151.33a1.5 1.5 0 0 1-1.45-1.12c-.95-3.67-.08-7.4-.05-7.56.2-.81 1-1.3 1.8-1.12.81.19 1.31 1 1.12 1.8-.01.07-.71 3.22.04 6.13a1.5 1.5 0 0 1-1.46 1.87ZM413.36 134.46a4.8 4.8 0 0 1-4.34-6.86 28.93 28.93 0 0 1 3.57-5.35 4.8 4.8 0 0 1 7.34 6.19c-.6.71-1.74 2.23-2.22 3.27a4.8 4.8 0 0 1-4.35 2.75Z" fill="#00A4E2"/><path d="M414.05 131.99c.57.63 1.17 1.22 1.79 1.78a4.77 4.77 0 0 0 1.87-2.06 19.06 19.06 0 0 1 2.22-3.27 4.8 4.8 0 0 0-7.34-6.2c-.1.12-.49.59-1 1.27.05 3.02.36 6.17 2.46 8.48Z" fill="#0086CF"/><path d="M429.82 126.69a9.08 9.08 0 1 1-16.78-6.92l2.4-5.83a9.08 9.08 0 0 1 16.79 6.92l-2.4 5.83Z" fill="#00A4E2"/><path d="M414.05 119.1c-.74 3.11-5.22 2.11-6.9.48-2.32-2.24-3.7-8.59 1.43-8.25-3.7-5.59 8.86-11.64 10.17-5.19.98-1.66 1.99-3.16 4.17-3.3 1.57-.1 4.32 1.11 4.1 3.04a6.51 6.51 0 0 1 8.04.16c.74.6 2.07 1.93 1.4 2.9-.36.53-2.25.7-2.89.89 1.1-.5 5.57.5 4.69 2.36-.41.87-2.6.09-3.24-.1v.2c2.39 1.3 3.37 2.64 3.09 5.61-.14 1.37-.78 3.95-2.41 4.15-.83.1-1.8-.43-1.78-1.3 2 1.99-.83 7.32-3.35 4.7-1-1.04-.51-2.77.42-3.66-1.49-.86-4.72-5.39-2.42-6.6-1.08.02-6.06-1.67-4.47-3.1.42 1.66-1.64 3.81-3.28 2.96 1.02 2.22-1.97 3.87-3.81 3.95 1.12 1.41-2.35 3.1-3.41 1.04l.45-.95Z" fill="#00396A"/><path d="M243.46 100.97S240.54 89.8 255 87.17l-1.1 13.4-10.44.4Z" fill="#0089E0"/><path d="M185.53 129.14c-3.17 0-6.11-.64-8.82-1.93-13.14-6.2-14.6-24.85-14.65-25.64a5.1 5.1 0 0 1 10.18-.73c.28 3.75 2.43 14.14 8.85 17.16 5.3 2.49 13.52-.05 23.78-7.33a5.1 5.1 0 1 1 5.9 8.32c-9.5 6.75-17.96 10.15-25.24 10.15Z" fill="#CDE5E8"/><path d="M212.68 138.71c1.42-3.72 2.73-7.5 4.27-11.19a28.74 28.74 0 0 1-3.13-.4 25.57 25.57 0 0 1-12.58-6.05 30.55 30.55 0 0 1-7.95-11.71 50.55 50.55 0 0 1-3.27-16.12c-.3-6.02.18-12.37 1.46-19.07a79.6 79.6 0 0 1 5.7-18.35 50.65 50.65 0 0 1 8.95-13.69 30.54 30.54 0 0 1 11.71-7.95 25.59 25.59 0 0 1 13.92-.98 25.6 25.6 0 0 1 10.37 4.4c1.45-2.88 3-5.71 4.48-8.54 1.75-3.34 3.38-6.75 4.93-10.18.66-1.47 1.24-2.98 1.84-4.48a54.4 54.4 0 0 0-16.87-6.08c-8.83-1.7-17.14-1.37-24.94.95a55.93 55.93 0 0 0-21.05 11.68c-6.24 5.47-11.54 12.33-15.89 20.57a98.5 98.5 0 0 0-9.44 27.63 98.45 98.45 0 0 0-1.4 29.17c1 9.27 3.39 17.6 7.18 24.98a55.86 55.86 0 0 0 15.27 18.61c5.94 4.7 12.95 7.93 21.02 9.71 1.91-4.26 3.76-8.54 5.42-12.9Z" fill="#00AFE2"/><path d="M281.79 62c-1-9.28-3.4-17.6-7.19-24.98a55.97 55.97 0 0 0-15.27-18.62 48.37 48.37 0 0 0-5.42-3.7c-.6 1.5-1.17 3-1.85 4.47a225.32 225.32 0 0 1-4.92 10.18c-1.5 2.85-3.07 5.7-4.52 8.6.51.4 1.02.81 1.5 1.25a31.5 31.5 0 0 1 8.06 11.73 49.07 49.07 0 0 1 3.39 16.04 79.79 79.79 0 0 1-1.48 19.16 79.99 79.99 0 0 1-5.67 18.27 49 49 0 0 1-9.08 13.76 31.47 31.47 0 0 1-11.8 7.93 24.52 24.52 0 0 1-9.97 1.48c-1.7 4.03-3.13 8.18-4.68 12.26a215.36 215.36 0 0 1-5.02 11.92l1.2.25c8.82 1.68 17.13 1.36 24.93-.96a55.89 55.89 0 0 0 21.05-11.68c6.25-5.47 11.54-12.32 15.89-20.58a98.47 98.47 0 0 0 9.44-27.62 98.61 98.61 0 0 0 1.4-29.16Z" fill="#006091"/><path d="M229.4 132.41c4.82.92 9.4.58 13.72-1.02a31.46 31.46 0 0 0 11.81-7.93 49.03 49.03 0 0 0 9.08-13.77 79.84 79.84 0 0 0 5.67-18.25 79.5 79.5 0 0 0 1.48-19.17 49.08 49.08 0 0 0-3.39-16.04 31.55 31.55 0 0 0-8.05-11.73 25.24 25.24 0 0 0-12.37-6 25.6 25.6 0 0 0-13.92.98 30.55 30.55 0 0 0-11.71 7.95 50.6 50.6 0 0 0-8.96 13.69 79.55 79.55 0 0 0-5.69 18.35 79.97 79.97 0 0 0-1.46 19.07c.31 6.02 1.4 11.4 3.27 16.12a30.5 30.5 0 0 0 7.95 11.71 25.56 25.56 0 0 0 12.58 6.04Zm-4.75 24.88c-8.83-1.68-16.44-5.04-22.82-10.08a55.87 55.87 0 0 1-15.27-18.62c-3.79-7.38-6.18-15.7-7.19-24.98-1-9.27-.53-18.99 1.41-29.16a98.46 98.46 0 0 1 9.44-27.63c4.35-8.24 9.65-15.1 15.9-20.57a55.96 55.96 0 0 1 21.05-11.68c7.79-2.32 16.1-2.64 24.93-.95 8.83 1.68 16.44 5.04 22.83 10.07a55.97 55.97 0 0 1 15.26 18.62c3.8 7.38 6.19 15.71 7.19 24.99 1 9.27.53 19-1.41 29.16a98.57 98.57 0 0 1-9.44 27.62c-4.35 8.26-9.64 15.11-15.89 20.58a55.91 55.91 0 0 1-21.05 11.68c-7.8 2.32-16.1 2.64-24.94.95" fill="#0076AD"/><path d="m314.67 82.36.39 18.76s-5.36 4.8-10.16 0L306.67 80l8 2.36Z" fill="#00396A"/><path d="M292.58 232c-.3-.24-2.4-1.21-2.7-1.45a24.78 24.78 0 0 1-3.25 4c3.3 2.88 2.46 6.39 2.46 6.39s-2.34 2.01-3.26 2.46c-2.91 1.44-8.3 3.44-8.3 3.44l13.56 1.06 10.05-10.3a63.58 63.58 0 0 1-8.56-5.6ZM239.46 232.74c-2.16-.38-4.88 1.27-6.64 0-.4 3.77-.33 5.83-.33 5.83l-20.05 8.27h25.61c.23-2.73-.26-5.35.1-7.88.2-1.3 1.08-4.97 1.31-6.22Z" fill="#002E4F"/><path d="m262.81 141.71-22.66 43.06s9.18 7.77 18.22 10.36l17-50.74-12.56-2.68Z" fill="#CDE5E8"/><path d="M287.63 235.63a31.9 31.9 0 0 0 3.6-4.73c-5.87-5.03-8.74-10.2-16.7-19.11-3.3-3.7 5.44-24.8 7.56-28.35 3.8-6.36 4.4-10.98 7.37-21.87l-22.13 8.27c-5.27 18.87-11.4 37.75-5.26 46.75 6.5 9.52 18.05 17.18 23.62 21.01.2.15 1.75-2.11 1.94-1.97Z" fill="#002E4F"/><path d="M250.36 98.75a1.5 1.5 0 0 1-1.22-2.37c1.78-2.49 2.18-4.53 2.18-4.55a1.5 1.5 0 0 1 1.74-1.21 1.5 1.5 0 0 1 1.22 1.73c-.02.1-.49 2.7-2.7 5.78-.3.4-.75.62-1.22.62Z" fill="#00A4E2"/><path d="M287.89 166.13c6.59-18.09 12.21-46.47 14.32-57.8a28.8 28.8 0 0 0-3.25-1.11c-1.95-.54-4.3-1.18-6.3-.55-1.02.31-1.92.84-2.81 1.4-.82 2.45-1.16 4.53-1.16 4.53s-14.15 27.05-23.37 45.5a91.86 91.86 0 0 1 22.57 8.03Z" fill="#F6EE9E"/><path d="M265.05 158.65h-.01c-.82 1.63-1.6 3.2-2.31 4.66a146.16 146.16 0 0 1-5.67 9.04c-18.2 27.46-25.09 49.34-26.3 59.7 1.74 1.35 8.31 2.12 10.5 2.5 3.36-17.16 12.1-28.12 27.77-41.07 5.24-4.33 9.16-9.84 12.6-14.41 2.06-2.72 4.1-7.1 6.05-12.38a91.58 91.58 0 0 0-22.63-8.04Z" fill="#00396A"/><path d="M247.38 166.2a5.1 5.1 0 0 1-1.67-9.92c6.19-2.15 15.68-10.61 22.09-19.69 12.99-18.42 22.1-28.64 22.5-29.06a5.1 5.1 0 0 1 7.59 6.81c-.1.1-9.14 10.24-21.75 28.13-6.32 8.96-17.5 20.12-27.09 23.45-.55.2-1.12.28-1.67.28Z" fill="#00A4E2"/><path d="m298.63 110.02-.36-.01a4.8 4.8 0 0 1-4.44-5.14c.2-2.77 1.27-5.94 1.4-6.29a4.8 4.8 0 0 1 9.08 3.13c-.3.88-.82 2.71-.9 3.86a4.8 4.8 0 0 1-4.79 4.45Z" fill="#00A4E2"/><path d="M300.03 104.95c.85.98 1.78 1.85 2.76 2.64.34-.6.57-1.28.62-2.02.08-1.15.6-2.98.9-3.86a4.8 4.8 0 0 0-8.48-4.3c.44 2.71 2.65 5.77 4.2 7.55Z" fill="#0086CF"/><path d="M312.4 94.56a9.08 9.08 0 0 1-18.15-.41l.14-6.3a9.08 9.08 0 1 1 18.16.4l-.15 6.3ZM240.18 164.8c-2.1 0-4.5-.57-7.18-1.7a1.5 1.5 0 0 1 1.16-2.77c3.96 1.67 7.1 1.9 9.1.7a1.5 1.5 0 1 1 1.56 2.56 8.8 8.8 0 0 1-4.64 1.2Z" fill="#00A4E2"/><path d="M241.97 166.98a26 26 0 0 1-6.48-1l-.68-.16a1.5 1.5 0 1 1 .7-2.92l.68.17c3.64.88 6.05 1.46 11.37.09a1.5 1.5 0 1 1 .75 2.9c-2.56.67-4.58.92-6.34.92ZM240.07 161.84c-4.7 0-7.94-2.9-8.1-3.05a1.5 1.5 0 0 1 2.03-2.21c.15.13 3.6 3.17 8.24 1.98a1.5 1.5 0 1 1 .75 2.9c-1.02.27-2 .38-2.92.38Z" fill="#00A4E2"/><path d="m243.22 160.23-.18-.01a9.67 9.67 0 0 1-7.28-4.44 1.5 1.5 0 0 1 2.63-1.46c.07.13 1.49 2.5 5 2.92a1.5 1.5 0 0 1-.17 2.99ZM261.15 100.92c-.08 0-.16 0-.24-.02-2.49-.41-9.28-1.48-10.86-1.48a1.5 1.5 0 0 1 0-3c2.1 0 10.4 1.36 11.35 1.52a1.5 1.5 0 0 1-.25 2.98Z" fill="#00A4E2"/><path d="M260.2 104.07a1.5 1.5 0 0 1-.4-.05c-.08-.02-7.21-1.97-10.53-2.16a1.5 1.5 0 0 1-1.42-1.58c.05-.83.77-1.48 1.59-1.41 3.63.2 10.84 2.17 11.15 2.25a1.5 1.5 0 0 1-.4 2.95Z" fill="#00A4E2"/><path d="M259.47 107.37c-.16 0-.31-.02-.46-.07-6.76-2.18-8.43-2.32-9.32-2.39-.39-.03-.75-.06-1.25-.2a1.5 1.5 0 0 1 .77-2.9c.23.07.4.08.72.11 1.09.09 2.9.23 10 2.52a1.5 1.5 0 0 1-.46 2.93Z" fill="#00A4E2"/><path d="M256.5 109.77h-.1c-6.78-.49-7.06-4.16-7.07-4.58l3-.07v-.1c0 .02.3 1.47 4.28 1.76a1.5 1.5 0 0 1-.11 3Z" fill="#00A4E2"/><path d="M250.83 107.97s-1.3-.6-3.33-.6c-1.7 0-4.03-2.9-4.03-5.9 0 0-.83-8.86 8.53-4.85l-1.17 11.35Z" fill="#00A4E2"/><path d="m280.3 134.31-13.12 64.57s20.3 4.9 32.76-2.28l3.16-89.71s-13.95-4.88-22.8 27.42Z" fill="#CDE5E8"/><path d="m283.33 169.84 12.56-.68s.3 19.21-7.2 18.47c0 0-10.27 2.24-5.36-17.8M299.1 105.35a7.48 7.48 0 0 0-10.6.57c-.38.43-9.55 10.7-22.66 29.29a68.53 68.53 0 0 1-2.81 3.69l-1.33 1.63 1.45 1.53c1.55 1.64 3.17 3.23 4.74 4.77.85.84 1.7 1.67 2.54 2.52l1.86 1.86 1.68-2.02c1.5-1.79 2.9-3.59 4.13-5.33 12.53-17.78 21.49-27.81 21.58-27.92a7.51 7.51 0 0 0-.58-10.59Z" fill="#E1F3F6"/><path d="m272.78 152.27-13.2-11.87 5.06-5.64 13.2 11.87-5.06 5.64Z" fill="#F8FDFF"/><path d="m285.14 98.16 11.54 4.52s4.9-23.87 1.32-27.45c0 0-12.86-1.22-12.86 22.93Z" fill="#00396A"/><path d="M298.67 79.39c.4.6 9.36 6.58 16.39 4.93 0 0-1.2-10.56-17.61-9.04l1.22 4.1Z" fill="#00396A"/><path d="M305.58 90.64a5.02 5.02 0 1 1-10.04 0 5.02 5.02 0 0 1 10.04 0Z" stroke="#DDDD67" stroke-width="1.16" stroke-miterlimit="10"/><path d="M316.91 91.63a4.36 4.36 0 1 1-8.72 0 4.36 4.36 0 0 1 8.72 0Z" stroke="#DDDD67" stroke-width="1.01" stroke-miterlimit="10"/><path d="M305.58 90.64s1.67-.65 2.66.34" stroke="#DDDD67" stroke-width="1.16" stroke-miterlimit="10"/><path d="m159.6 99.43-.36-.01a4.8 4.8 0 0 1-4.44-5.14c.2-2.77 1.27-5.94 1.4-6.29a4.8 4.8 0 0 1 9.08 3.13c-.3.88-.82 2.71-.9 3.86a4.8 4.8 0 0 1-4.79 4.45Z" fill="#0086CF"/><path d="M156.74 232.71c7.96 3.67 14.48 3.6 15.01 3.67 5.19-9.23 20.81-34.22 6.6-54.73l-20.1-10.8s20.1 20.97-1.5 61.86Z" fill="#002E4F"/><path d="M167.15 240.88s1.86-3.77 3.3-6.3c-1.08-.13-5.95-.33-7.95-1.1-1.88 3.84-5.97 9.45-8.86 13.3h27.02l-13.51-5.9Z" fill="#002E4F"/><path d="M200.56 182.85c-3.35-6.52-27.75-26.16-29.97-37.44-.2-1-.36-2.02-.5-3.07-3.92 2.07-9.01 2.64-13.04 2.84-4.57.23-7.3.52-11.73-1.64.37 7-.77 13.76 3.32 20.85 8.1 14.07 35.03 26.12 38.03 30.77 5.93 9.17 7.98 29.08 10 41.22 3.16 0 10.68-.13 13.77-1.23-1.04-6.23.65-31.87-9.88-52.3Z" fill="#00396A"/><path d="M208.98 239.79s-.88-3.55-1.14-5.2c-3.1 1.08-4.9-.02-8.07 0 .48 3 .12 8.63.4 11.94h25.61l-16.8-6.74Z" fill="#002E4F"/><path d="M157.24 148.87c3.9-.18 12.09-1.27 15.38-4.56-.68-5.35-3.07-13.97-2.23-20.9 2.86-23.5-8.62-30.55-8.62-30.55s-5.28-3.69-9.56.72c-6.46 6.65-12.76 25.46-12.13 53.26 4.46 2.3 12.48 2.24 17.16 2.03Z" fill="#CDE5E8"/><path d="M216.1 156.29a5 5 0 0 1-1.16-.14c-18.5-4.29-34.16-15.37-45.3-32.04-8.34-12.5-11.23-23.7-11.35-24.18a5.1 5.1 0 0 1 9.9-2.5c.05.2 2.7 10.3 10.13 21.3 9.8 14.51 22.89 23.76 38.92 27.48a5.1 5.1 0 0 1-1.15 10.08Z" fill="#00A4E2"/><path d="M204.85 140.96c-10.19-4.83-18.86-12.48-25.78-22.74a76.56 76.56 0 0 1-10-21.01 6 6 0 1 0-11.65 2.94l.03.11c.78 3.44 3.94 15.52 11.44 26.75 8.99 13.45 21.17 23.51 35.24 29.1a.91.91 0 0 0 .84-.08.9.9 0 0 0 .4-.75v-13.51a.9.9 0 0 0-.52-.81Z" fill="#E1F3F6"/><path d="M219.88 156.65c-1.63 0-3.37-.18-5.2-.55a1.5 1.5 0 1 1 .59-2.94c4.47.9 8.2.57 11.08-.97a1.5 1.5 0 1 1 1.41 2.65 16.52 16.52 0 0 1-7.88 1.81Z" fill="#00A4E2"/><path d="M220.1 153.3c-.72 0-1.45-.06-2.2-.16a1.5 1.5 0 0 1 .43-2.98c4.8.7 9.25-1.79 9.3-1.81a1.5 1.5 0 0 1 1.49 2.6c-.2.11-4.13 2.34-9.02 2.34Z" fill="#00A4E2"/><path d="M218.76 150.34c-.23 0-.47-.01-.7-.03a1.5 1.5 0 1 1 .18-2.99c3.55.22 5.41-1.94 5.43-1.96a1.5 1.5 0 1 1 2.33 1.9 9.58 9.58 0 0 1-7.24 3.08ZM213.58 147.8a1.5 1.5 0 0 1-.01-3c.13 0 3.1-.06 4.8-2.5a1.5 1.5 0 0 1 2.46 1.7c-2.61 3.77-7.07 3.8-7.25 3.8ZM208.67 113.94a1.5 1.5 0 0 1-1.22-.63 15.36 15.36 0 0 1-2.7-5.78 1.5 1.5 0 1 1 2.96-.51c0 .01.4 2.06 2.18 4.54a1.5 1.5 0 0 1-1.22 2.38Z" fill="#00A4E2"/><path d="M208.98 114.6c-.09 0-.19 0-.28-.03-3.28-.63-9.8-.63-9.86-.63a1.5 1.5 0 0 1 0-3c.27 0 6.86 0 10.42.69a1.5 1.5 0 0 1-.28 2.97Z" fill="#00A4E2"/><path d="M198.01 117.72a1.5 1.5 0 0 1-.18-2.99c.95-.12 9.38-1.14 12.1-.66a1.5 1.5 0 1 1-.52 2.96c-1.72-.3-7.79.26-11.21.68l-.19.01Z" fill="#00A4E2"/><path d="M199.96 121.12a1.5 1.5 0 0 1-.28-2.98 42.5 42.5 0 0 0 6.37-1.58c.82-.26 1.85-.59 3.38-1.03a1.5 1.5 0 0 1 .83 2.88c-1.49.43-2.45.74-3.3 1.01a45.47 45.47 0 0 1-7 1.7Z" fill="#00A4E2"/><path d="M203.2 123.5a1.5 1.5 0 0 1-.25-2.98c4.86-.83 5.82-2.64 5.83-2.66a1.5 1.5 0 1 1 2.85.94c-.2.58-1.49 3.54-8.18 4.68a1.7 1.7 0 0 1-.25.02Z" fill="#00A4E2"/><path d="m208.98 121.7-1.14-12.24s5.36.4 5.35 6.02c0 1.87-.54 3.97-4.2 6.21ZM175.2 81.85a9.6 9.6 0 0 1-18.54 4.9l-1.7-6.43a9.6 9.6 0 1 1 18.54-4.91l1.7 6.44Z" fill="#00A4E2"/><path d="M174.3 78.44c-.72 2.04-1.75 4.05-3.34 5.42a14.27 14.27 0 0 1-14.48 2.23l.18.66a9.6 9.6 0 0 0 18.55-4.9l-.9-3.4Z" fill="#00396A"/><path d="M156.63 86.4c-3.6-2.31-7.5-11.1-1.8-13.03 3.52-1.2 2.1 9.66 2.1 12.73l-.3.3Z" fill="#00396A"/><path d="M153.74 74.1c-4.36-3.16 1.04-12.09 11.8-12.09 6.65 0 6.6 5.1 2 7.85-3.81 2.28-9.73.94-12.6 4.83l-1.2-.6Z" fill="#00396A"/><path d="M174.3 80.41c-1.52-2.31-4.52-7-5.7-9.63-.73-1.68-1.75-4.53 1.6-2.5 2.81 1.7 4.34 7.68 4.08 10.72l.02 1.41Z" fill="#00396A"/><path d="M98.27 101.75c-1.65 1.53-3.47 2.97-4.97 4.67l-21.66 45.26 16.12-20.82 17.13-35.4c-2.19 2.1-4.38 4.23-6.62 6.3ZM85.43 94.32c1.57-2.15 3.08-4.67 4.87-6.9l-37.92-18.5-35.98 3.6 63.04 29.07c2.07-2.36 4.14-4.75 5.99-7.27Z" fill="#006091"/><path d="M90.84 87.7c-2.02 2.52-3.65 5.48-5.59 7.84a387.89 387.89 0 0 1-5.26 6.3l28.66 13.21 10.4-13.58-28.21-13.78Z" fill="#00AFE2"/><path d="m90.82 50.1-1.47-.7-51.3 30.02 31.51 15.09 21.26-44.4Zm-43.14 90.1L58.8 117 .57 89.12l9.35-19.54 95.89-56.47 26.17 12.53-38.47 80.34 15.85 7.58-10.76 22.48-15.85-7.58-11.11 23.22-23.96-11.47Z" fill="#0076AD"/><path d="m109.36 113.56 9.7-12.1-7.61 16.87-13.2 18.44 11.11-23.2ZM105.65 94.78l37.81-82.9-11.48 13.76-38.47 80.34c1.08-1.04 11.53-10.6 12.14-11.2Z" fill="#006091"/><path d="m9.92 69.58 17.09-14.87L120.7.93l-14.9 12.18L9.92 69.58Z" fill="#009EE7"/><path d="m105.81 13.1 26.17 12.54 11.48-13.75L120.7.93l-14.89 12.18Z" fill="#00D2FD"/><path d="M70.69 84.21a35 35 0 0 0 1.15-2.19c-.27.64-.64 1.37-1.15 2.2Zm3-10.56c-3.21-2.28-5.43-1.28-6.97-1.04a4.24 4.24 0 0 1-2.96-.67 1.5 1.5 0 0 0-1.63 2.52c.07.05 1.38.88 3.67 1.48-2.5 2.27-5.04 5.02-5.18 5.17a1.5 1.5 0 0 0 2.2 2.04c.03-.03 1.8-1.94 3.78-3.85-1.83 2.3-3.56 4.7-3.88 5.13a1.5 1.5 0 0 0 2.44 1.75 130.8 130.8 0 0 1 3.7-4.89c-.5.98-1.12 2.08-2.37 4.1a1.5 1.5 0 1 0 2.55 1.58l1.27-2.1a1.5 1.5 0 0 0 2.65 1.37 15.95 15.95 0 0 0 2.39-5.32l.06.05c.83-4.22-.18-6.23-1.71-7.32Z" fill="#00A4E2"/><path d="M27.73 90.68c-4.75-.27-11.64 9.03-4.59 11.56-6.39-.15-7.95 8.87-2.1 11.37-10.25-2-9.05 11.28-4.2 16.1-3.29-.53-6.61 2.6-6.11 6.03.5 3.44 1.86 8.21 10.38 10.77 8.52 2.56 13.73-2.23 17.96-6.75 2.72 5.55 16.13-1.95 14.64-8.58 5.06 1.8 9.6-3.95 9.7-8.54.1-4.48-3.04-7.9-6.02-10.8 2.1-1.93 2.5-5.5 1.95-8.22-.92-4.53-6.6-4.98-6.6-8.59 0-1.26.25-5.18-.83-6.9-1.7-2.74-4.69-5.45-8.43-4.11-15.75-7.47-15.75 6.66-15.75 6.66Z" fill="#00396A"/><path d="M36.91 236.38c-4.33-.75-5.03-.54-9.3-1.58l-9.9 12.1h38.41l-22.31-6 3.1-4.52ZM108.45 239.85l-2.28-2.98a30.34 30.34 0 0 1-6.5 3.26l6.07 6.77h22.52l-19.81-7.05Z" fill="#002E4F"/><path d="M23.54 236.42c4.3 1.06 8.6 2.15 12.96 2.9l31.73-39.04-5.4-15.5-22.22-25.62 6.4 36.3-23.47 40.96Z" fill="#002E4F"/><path d="M66.68 148.41c-8.7-2.3-20.5.62-28.97 3.81 0 0 5.2 20.68 8.6 26.85 9.94 17.96 52.89 62.79 52.89 62.79 2.36-.8 6.9-4.13 8.98-5.48l-41.5-87.97Z" fill="#00396A"/><path d="M36.56 160.31c8.4-3.16 25.27-8.48 33.92-6.32 0 0-11.46-26.91-16.66-32.85-3.51-4-22.68-15.28-22.68-.54 0 20.2 5.42 39.71 5.42 39.71Z" fill="#CDE5E8"/><path d="M44.03 119.34a4.8 4.8 0 0 1-6.23-3.28 28.87 28.87 0 0 1-.75-6.39 4.8 4.8 0 0 1 9.6-.05c0 .94.13 2.83.43 3.94a4.8 4.8 0 0 1-3.05 5.78Z" fill="#00A4E2"/><path d="M47.23 114.6a4.91 4.91 0 0 0-.15-1.04c-.3-1.1-.42-3-.43-3.94a4.8 4.8 0 1 0-9.6.46c2.37 2.67 6.27 3.93 10.18 4.52Z" fill="#0086CF"/><path d="M51.93 100.2a9.08 9.08 0 0 1-17.27 5.6l-1.95-5.99a9.08 9.08 0 0 1 17.27-5.6l1.95 5.99Z" fill="#00A4E2"/><path d="M105.4 95.38a1.48 1.48 0 0 0-.63-.3l.73-.8a1.5 1.5 0 0 0-.33-2.3 1.5 1.5 0 0 0-1.73-2.26c.68-.69 1.1-1.17 1.16-1.23a1.5 1.5 0 1 0-2.26-1.98c-.03.04-3.3 3.71-6.65 5.63a8.12 8.12 0 0 0-3.52-3.02 1.5 1.5 0 0 0-1.92.86c-.3.77.08 1.64.84 1.94.07.03 1.22.52 2.1 1.89a7.1 7.1 0 0 0-.34 1.39c-22.09 29.9-51.37 19.28-52.7 18.78a5.1 5.1 0 0 0-3.67 9.52c.35.14 7.52 2.86 17.75 2.86 2.06 0 4.24-.1 6.5-.37 11.03-1.28 27.34-7.63 40.37-24.42.22-.13.52-.31.92-.6.26-.18.53-.37.8-.6l-.02-.02c.77-.65 1.72-1.57 2.8-2.86a1.5 1.5 0 0 0-.2-2.11Z" fill="#00A4E2"/><path d="m64.75 114.06-1.24.26a44.4 44.4 0 0 1-9.33.99c-7.74 0-13.12-1.95-13.7-2.17a5.97 5.97 0 0 0-7.75 3.44 5.4 5.4 0 0 0 .1 4.58c2.93 5.2 10.98 7.3 21.4 7.3 2.22 0 4.44-.12 6.61-.38 1.33-.15 2.72-.38 4.15-.68l.87-.23s-1.25-3.78-1.52-7.63c-.1-1.47.41-5.48.41-5.48Z" fill="#E1F3F6"/><path d="M32.51 104.63c3.15-2 4.24-5.75 3.9-9.5 2.76 1.86 4.95.72 6.67-2.47 5.24 7.34 13.22-3.58 2.34-7.53-8.71-3.17-17.24 5.44-15.01 14.1l2.1 5.4Z" fill="#00396A"/></svg>