<svg width="463" height="200" fill="none" xmlns="http://www.w3.org/2000/svg"><path d="M418.26 110.457c.044-.276.072-.528.08-.773.023-.526-.219-.435-.08.773Z" fill="#fff"/><path d="M416.66 125.497c-1.419-.016-.802-.958-.339-1.418.461-.464 1.897.369 1.897.369s.386.432.371.708c-.017.279-.511.355-1.929.341Zm1.488 24.39c-.092 1.666-.439 1.644-1.134 1.134-.693-.508-2.684-1.341-4.258-2.336-1.572-.994-2.638-1.876-1.458-1.574 1.18.302 1.712-.278 1.343-1.042s1.944-1.226 3.425-1.202c1.48.024 1.69.785 2.082 1.596 0 0 .093 1.76 0 3.424Zm-15.206-24.174c-1.648.57-1.109-.524-1.154-.897-.046-.368.556-.277 1.094-.181.54.09.988-.572.988-.572.387-.398.711.184.863.662.156.478-.139.415-1.791.988Zm-.368 3.038c-.94.604-.741-.786-.772-1.124-.03-.342.675-.415.772-.464.402-.2.94.986 0 1.588Zm24.251 15.46c-.677-.803-1.172-.835-1.005-1.696.162-.864-.659-1.327-1.463-2.747-.803-1.42.585-1.42 1.296-2.777.711-1.358-.987-2.19-2.961-2.871-1.974-.679-.31-2.096.772-2.684 1.078-.587.646-1.141-.062-3.084-.71-1.944-.402-1.852.184-3.209.588-1.354-1.172-2.067-2.437-1.699-1.265.369-.955-2.097-.34-3.857.617-1.758-.801-2.312-1.912-6.202-.385-1.344-.563-2.292-.637-2.929-.103.625-.314 1.392-.722 2.591-.585 1.728-.4 2.593-.248 4.32.154 1.725-1.294 2.9-1.633 3.608-.34.712.708.65 1.419 1.236.709.586-.463.709-1.79 1.17-1.326.466-.4.896.064 2.007.46 1.112-.71.432-2.872.959-2.16.522 1.975 2.096 2.376 3.456.4 1.354-1.696-.712-3.301.4-1.604 1.109 2.407 2.344 3.764 3.64 1.359 1.296-1.017.709-2.528.649-1.515-.061.028.555 1.139 1.479 1.112.929-.895.464-2.312.248-1.419-.216.833.894 1.542 2.19.708 1.296-.834 2.438-2.654 2.502-1.82.058-.555-.99.308-2.284.864-1.298.218-.834-.278-1.79-.492-.957.71-1.234.587-2.345-.123-1.111-2.376-.773-2.747-1.575-.37-.802 1.419-.988 1.79-1.706.37-.718-1.11-.175-1.542-.608-.432-.431.092-.895 1.512-2.314 1.419-1.42.154-1.881-1.02-2.066-1.173-.187-.122-.835-.185-1.604-.06-.772-.925-1.388-1.635-1.73-.709-.34-.153-1.202.342-2.622.492-1.42-1.082-1.111-1.082-2.067 0-.955-.124-1.388-.986-3.023-.866-1.637-.279-3.95-.372-4.754-.094-.8-.184 1.266-.402 2.346-.213 1.08-.4 2.006-.525 3.271-.121 1.264-1.449 2.839-2.589 4.38-1.144 1.544.648.927 1.512 1.483.865.556.154.74-.463.986-.619.247-1.389.924-1.309 2.098.08 1.174-1.038 1.081-2.766.926-1.726-.154-.4.834.651 1.667 1.049.833 1.941 1.296 2.097 1.943.154.649-.68 1.017-1.853.68-1.172-.34-1.017-.71-2.067-.34-1.049.37-.617 1.081.556 1.348 1.171.27 2.9.349 3.116 1.181.216.835-3.164.787-3.625.88-.461.093 2.035 1.713 2.528 2.452.493.743-.583-.045-1.88-.323-1.296-.277 1.249.787 1.757 1.759.511.972-.646-.139-2.126 0-1.482.139.23.416 1.062 1.109.834.695.787 2.224.787 2.224l2.64 2.22s7.064 3.995 8.515 5.758c1.45 1.764 4.876 2.528 7.066 3.392 2.19.864 1.512.864 1.482-1.698-.031-2.56.184-3.422.493-4.102.309-.682 1.696-.278 3.424 1.17 1.729 1.452 3.116.403 3.891-.525.772-.923.337-1.695-.343-2.497M174.466 3.324c.939 1.0546 1.612 2.6013 2.176 4.1853.591 1.6774 1.084 3.4427 1.685 5.2253.306.8867.635 1.7854 1.036 2.6774.199.444.426.8867.672 1.3213l.255.4147.207.276c.193.2386.573.5986.818.728 1.143.6946 2.191.7293 3.003.92.409.0827.771.184 1.008.3133.26.164.305.1907.512.5387l5.281 9.6693c.915 1.5693 1.866 3.304 3.252 4.6867.655.6906 1.355 1.352 2.135 1.9453.395.2974.804.576 1.255.8254.396.196.709.3786 1.229.5l15.299 18.3399c5.14 6.1787 10.318 12.3267 15.393 18.5627 1.673 2.832 3.313 5.6947 4.899 8.5774.796 1.4493 1.578 2.9053 2.333 4.3746.82 1.46 1.296 2.948 2.38 4.4827 2.108 2.8413 4.931 4.756 7.56 6.7586 2.669 1.9694 5.287 3.9604 7.597 6.2534 1.158 1.14 2.247 2.347 3.218 3.632.968 1.305 2.081 2.707 3.304 3.881 2.438 2.42 5.306 4.338 8.232 5.991 2.922 1.665 5.952 3.059 8.633 4.797.669.436 1.312.892 1.908 1.391l.435.38c.013.009.014.011.022.019-.012.066-.04.19-.114.336-.542 1.124-1.724 2.382-2.831 3.494-4.643 4.519-9.965 8.528-15.148 12.611l-9.677 7.345c1.906.018 3.81.038 5.713.064 2.005-1.606 4.012-3.21 6.008-4.836 5.148-4.229 10.279-8.46 14.975-13.385 1.142-1.297 2.314-2.48 3.174-4.379.172-.493.44-1.137.123-2.078-.188-.52-.625-.878-.715-.94l-.513-.424c-.692-.552-1.415-1.039-2.145-1.499-2.93-1.813-5.979-3.133-8.854-4.699-2.873-1.548-5.608-3.306-7.93-5.525-1.191-1.107-2.176-2.292-3.21-3.631-1.057-1.337-2.222-2.578-3.452-3.741-2.456-2.332-5.177-4.32-7.846-6.2854-2.647-1.9666-5.408-3.8653-7.291-6.3786-.869-1.16-1.493-2.86-2.301-4.284-.771-1.4787-1.574-2.94-2.382-4.392a314.448 314.448 0 0 0-5.013-8.6253l-.025-.0454-.03-.036c-5.177-6.1693-10.242-12.4346-15.348-18.6626L200.078 36.288l-.201-.2414-.402-.0599c-.104-.0107-.602-.1921-.909-.3854-.351-.192-.696-.4387-1.028-.7053-.665-.532-1.292-1.148-1.881-1.8067-1.202-1.2506-2.003-2.7987-2.888-4.4093l-5.036-9.78c-.21-.4667-.787-1.16-1.343-1.428-.569-.324-1.107-.452-1.588-.568-.963-.2147-1.809-.36-2.232-.6694-.149-.1053-.1-.0733-.212-.1746l-.199-.2787c.068.088-.068-.1346-.09-.1813-.196-.3653-.38-.7413-.546-1.1413-.334-.7894-.621-1.6227-.885-2.4787-.536-1.7094-.983-3.4933-1.571-5.296-.493-1.456-1.052-2.9747-2.036-4.3973.024-.0414.043-.068.068-.1214.04-.088.075-.1786.1-.2706.044-.1747.071-.3374.052-.572-.005-.7-.821-1.2694-1.102-1.2694-.595-.1133-.716-.016-.907 0-.163.0347-.293.0733-.416.1093-.236.076-.445.1587-.639.24-.784.3294-1.473.6907-2.162 1.068-1.374.7507-2.686 1.5627-3.975 2.424-2.557 1.748-5.04 3.5934-7.24 6.02-.541.6107-1.076 1.2947-1.519 2.0507-.34.5867-.73 1.0987-1.182 1.6654-.903 1.1133-1.904 2.2133-2.915 3.3107-2.043 2.188-4.124 4.3853-6.152 6.6679-2.021 2.296-4.029 4.6227-5.769 7.3347-.964 1.5133-1.456 2.748-2.236 3.964-.746 1.2227-1.575 2.4053-2.463 3.5546-.891 1.148-1.839 2.2627-2.829 3.3947l-1.512 1.7707c-.256.3173-.514.648-.778 1.036-.288.416-.548.9546-.624 1.1013-1.204 1.9667-3.737 3.8773-6.022 5.7-1.128.872-2.52 1.9373-3.62 3.1893-1.127 1.24-2.055 2.604-2.858 3.98-1.598 2.76-2.805 5.576-4 8.372-1.218 2.7734-2.248 5.6907-3.481 8.24-1.273 2.608-2.825 5.1027-4.527 7.5147-1.701 2.4227-3.57 4.74-5.452 7.0907l-2.84 3.568c-.9409 1.2613-1.8582 2.412-2.6689 4.0773-.58 1.492-1.1026 2.6037-1.904 3.8507-.768 1.208-1.6653 2.396-2.5733 3.605-1.816 2.355-3.58 5.012-5.0987 7.483l-14.404 15.632-7.2453 7.84c-2.4454 2.563-4.9947 5.04-7.5774 7.484-5.2026 4.851-10.5493 9.559-15.9346 14.213-5.3973 4.647-10.8973 9.166-16.236 13.9-.9627.859-2.0147 1.604-3.1027 2.302.6907-.31 1.3813-.616 2.0733-.927.4454-.344.8907-.688 1.308-1.068 5.344-4.691 10.8761-9.189 16.2961-13.809 5.456-4.579 10.892-9.19 16.1946-13.955 2.6654-2.369 5.3-4.776 7.848-7.292l7.4934-7.625 14.9586-15.262.0627-.062.0453-.067c1.7187-2.605 3.3587-4.908 5.2867-7.265.94-1.176 1.9066-2.367 2.8013-3.675.8933-1.256 1.7014-2.8707 2.2454-4.1747.5455-1.04 1.5095-2.2746 2.4215-3.392l2.905-3.4253c1.977-2.2893 3.924-4.652 5.752-7.1254 1.825-2.4853 3.525-5.0933 4.964-7.8813 1.457-2.8547 2.465-5.636 3.689-8.384 1.196-2.7346 2.408-5.4666 3.86-7.9173.728-1.2227 1.523-2.3574 2.435-3.348.909-1.008 1.94-1.7707 3.191-2.7467 1.197-.9533 2.389-1.9146 3.572-2.9746 1.166-1.076 2.373-2.2094 3.337-3.8614.273-.52.335-.668.476-.8733.157-.236.361-.5067.58-.7787l1.413-1.6813c.988-1.148 1.991-2.3347 2.936-3.5814.948-1.2426 1.846-2.5426 2.66-3.9013.836-1.336 1.504-2.908 2.179-3.9373 1.499-2.3867 3.421-4.6707 5.371-6.9107l6.029-6.7227c1.008-1.148 2.016-2.3 2.984-3.5586.473-.62.981-1.3267 1.38-2.0587.307-.5547.696-1.0747 1.14-1.6027 1.804-2.104 4.143-3.9693 6.527-5.6706 1.201-.8453 2.437-1.6494 3.694-2.3787.358-.2067.715-.404 1.071-.5893" fill="#fff"/><path d="M280.27 125.051c.066.061.041.053 0 0Z" fill="#fff"/><path fill-rule="evenodd" clip-rule="evenodd" d="M175.155 1.359s-5.887 9.0561 0 20.6414c5.886 11.5814 7.014 17.0894 5.028 22.4067-1.988 5.3187-13.028 23.3347-5.788 17.8507 7.241-5.484 10.636-12.7707 10.254-4.9613-.38 7.8106-4.681 30.324-2.468 29.6053 2.214-.7173 6.02-7.7187 7.406-2.6147 1.384 5.1026 1.898 12.912-4.556 15.38-6.456 2.4689-20.282 11.0359-16.646 5.2949 3.638-5.7442 10.283-11.8442 6.2-10.2309-4.082 1.6133-15.596 14.7929-14.064 11.4799 1.53-3.315 9.696-11.0999 5.708-9.6772-3.988 1.4253-24.18 22.5662-20.002 20.9842 4.178-1.582 17.657-11.403 14.432-7.596-3.226 3.808-.935 6.145 3.9 2.568 4.836-3.579 6.512-4.87 7.077-4.259.564.612 3.963-2.613 5.419.111 1.454 2.72-.951 7.942.949 13.449 1.899 5.508 4.843 5.888 2.657 10.54-2.184 4.652-2.961 10.544.99 14.813 3.948 4.27.72 11.487 3.189 16.71 2.469 5.222 7.679 21.173-4.657 15.856-12.339-5.315-23.354-13.008-32.659-15.476-9.305-2.47-17.28 2.753-19.937.665-2.66-2.091-4.559-2.471-9.402-1.616-4.842.855-7.596 1.52-2.089-4.747 5.508-6.266 12.913-18.23 3.989-12.248-8.926 5.982-12.058 16.616-22.9782 20.604-10.9187 3.99-14.908 7.216-19.3694 9.304-4.464 2.09-2.0893 1.995-12.9133 2.09-10.824.096-28.58-1.342-34.4667 3.224 0 0 9.9161-7.383 13.5987-8.295 3.6827-.912.804-5.523 5.296-6.037 4.4933-.518 8.4507 1.137 12.9133-3.895 4.4627-5.032 6.2654-5.791 11.4881-6.171 5.2226-.378 11.3426-4.684 11.0146-5.698-.328-1.011-2.184.19-4.7467 1.52-2.564 1.329 3.7974-9.02 10.444-11.679 6.6467-2.659 8.004 2.612 13.2136-6.432 5.208-9.044 7.96-14.741 13.373-18.729 5.412-3.988 11.203-8.355 8.259-5.602-2.943 2.754-8.627 13.435-13.159 17.526-4.532 4.09-9.125 9.452-11.219 11.765-2.0915 2.312-4.8662 7.265.356 2.612 5.223-4.652 13.104-11.584 16.996-16.9 3.894-5.317 3.502-9.601 5.218-16.908 1.714-7.304 3.953-8.6466 6.312-12.9252 2.358-4.2814 9.074-12.5747 2.238-5.9454-6.836 6.628-36.3969 32.9626-40.8275 36.5356-4.4307 3.576-8.2027 4.886-13.7387 8.472-5.536 3.588-5.6453 5.42-10.1947 7.07-4.5506 1.645-10.6213 3.424-.5613-5.392 10.0627-8.82 23.196-24.432 25.8227-29.456 2.6266-5.022 12.7455-19.1056 17.1495-23.1616 4.404-4.056 7.478-15.1586 10.253-20.2653 2.772-5.1093 12.5-14.7467 16.493-19.576 3.992-4.8294 9.126-12.5826 12.572-17.5466 3.444-4.9667 7.327-7.4561 10.334-11.6094 3.005-4.152 5.893-7.208 8.985-9.2466 3.091-2.0387 6.915-4.1814 6.915-4.1814" fill="#fff"/><path d="M266.789 52.9844s3.11-2.8146 4.338-4.616c1.233-1.8.73-2.076 2.201-2.928 1.469-.8586 8.809-3.1573 8.248-4.2907-.287-.5746-11.561 2.1093-13.357 2.5627-1.794.4546-2.315.4867-3.847 2.532-1.529 2.0453-2.971 3.6346-2.971 3.6346l5.388 3.1054" fill="#fff"/><path d="M275.112 42.1205c3.206-.6893 6.316-1.2693 6.464-.9706.27.54-1.261 1.344-3.09 2.1333-.942-.3773-2.302-.8867-3.374-1.1627M260.039 50.2815c.794.1946 3.443.1093 5.456 1.3373 2.014 1.228 3.184 3.304 4.092 3.6853.907.38 4.531 1.688 3.206 1.944-1.323.252-4.911-1.2026-5.903-1.4453-.992-.2466-6.548-.9733-7.727-1.9467-1.182-.976-1.396-1.6053-2.065-1.8733-.671-.268-1.516-.684-1.9-.6227-.381.0653-2.205.196-2.095-.0387.114-.2373 2.091-.8039 2.276-1.1293.184-.3213 1.362-1.2653 2.748-.704 1.392.56 1.912.7934 1.912.7934" fill="#fff"/><path d="M250.647 37.0959c.456-.5707 3.793 3.1947 5.285 4.6094 1.495 1.4186 5.349 3.9373 6.499 5.0306.765.724 1.55 2.664 2.306 4.4907.386.936.766 1.84 1.128 2.5347.714 1.3586 2.883 2.4746 4.274 3.0746-1.328-.3826-2.694-.9-3.248-1.0333-.992-.2467-6.548-.9733-7.727-1.9467-1.183-.976-1.396-1.6053-2.065-1.8733-.671-.268-1.516-.684-1.9-.6227-.33.0547-1.714.16-2.03.0387.043-.0747.087-.148.132-.2254.526-.272 1.923-.7093 2.079-.9813.081-.1386.356-.404.757-.6053 1.207-.08 1.68.3467 2.114.6413.373.2507.576.2067.553-.464-.008-.296-.06-.7187-.161-1.2933-.332-1.872-5.556-6.516-6.804-7.6627-1.242-1.144-1.65-3.1373-1.192-3.712" fill="#fff"/><path d="M251.839 40.807c-1.242-1.144-1.65-3.1374-1.192-3.7121.234-.2946 1.244.5707 2.37 1.672-.493.7387-.874 1.6321-1.069 2.1374-.039-.0333-.077-.0653-.109-.0973ZM254.782 50.556c-.241.3786.095.6547.372.8093-.388.056-1.681.148-1.985.032.043-.0747.087-.148.132-.2253.327-.168.989-.4014 1.481-.616M256.06 50.5313a.1664.1664 0 0 0 .123.2c.087.0226.181-.0334.2-.1214.024-.0893-.036-.18-.121-.2a.1644.1644 0 0 0-.202.1214ZM266.57 55.4712c.096-.2573.898.4853 1.339.6986.444.2094 2.688.7334 2.644 1.0414-.035.308-1.774-.2974-2.538-.5054-.768-.2053-1.488-1.1146-1.445-1.2346ZM223.337 15.79c.491-.04 3.652-1.44 4.052-1.7093.399-.268 2.677-.152 3.561.3173.879.4627 2.582 1.5307 4.164.8507 1.578-.6787 1.591-1.0786 2.108-1.2746.512-.1934 1.122-1.2454.602-1.6081 0 0 1.541-2.864 2.633-2.9013 1.084-.04 6.54-.768 5.025-1.332-1.512-.5706-5.429.0747-5.801.1-.375.0227-2.099.5053-2.952 2.068-.82 1.5053-.783 1.9613-1.089 2.2053-.306.2454-.816.3827-.816.3827s-1.727-.3427-2.848-.892c-1.116-.552-2.587-.708-4.099.1227-1.513.8346-5.853 3.7799-4.54 3.6706Z" fill="#fff"/><path d="M242.718 9.1092c-1.996-.1654-3.362.1934-3.951.6707-.585.468-1.863 2.3319-1.863 2.3319.52-.0946.92.2534.92.2534s1.542-2.864 2.634-2.9013c.421-.016 1.51-.1347 2.586-.3093-.092-.0187-.198-.0334-.326-.0454M236.227 13.79c-.359-.0334-1.249.5107-2.216.4094-.963-.108-2.769-1.7041-3.803-2.0774-.754-.2787-2.22.108-3.413.6467-1.849 1.176-4.528 3.1106-3.457 3.0213.49-.04 3.652-1.44 4.052-1.7093.398-.268 2.677-.152 3.561.3173.879.4627 2.581 1.5306 4.164.8506 1.577-.6786 1.591-1.0786 2.108-1.2746.123-.0453.248-.1387.365-.2627-.78.4254-1.001.104-1.361.0787M237.813 13.123c.579-.1546 1.608-.3506.833-.4773-.574-.0987-.868-.104-.868-.104s.014.0266.047.272c.028.1813-.012.3093-.012.3093ZM237.214 12.5346c.036.0453.028.1027-.016.1401-.037.032-.104.0266-.138-.0148-.031-.0413-.026-.108.017-.1386.043-.0307.103-.028.137.0133" fill="#fff"/><path d="M225.279 13.7805c-1.468 1.0267-2.735 2.0773-1.942 2.0093.287-.0213 1.491-.5133 2.518-.972-.658-.404-.576-1.0373-.576-1.0373ZM243.092 7.9066c.814.3614.197 1.2067.197 1.2067 1.603-.268 3.075-.6493 2.193-.9813-.561-.212-1.465-.2574-2.39-.2254M234.87 15.1375c-.021-.168-.603.1694-.895.2334-.297.0666-1.714.072-1.736.2627-.017.188 1.11.0639 1.599.0466.483-.0174 1.039-.4653 1.032-.5427M362.93 154.24c-.113-.392-.26-.585-.418-.709.576 1.233.728 1.751.418.709Z" fill="#fff"/><path d="M332.787 110.728c-5.73 4.564-4.952 7.09-6.86 8.705-1.906 1.608-4.46 1.943-5.339 3.107-.876 1.168-2.423 2.4-2.585 3.054-.168.663-1.216 1.523-2.228 2.81-1.006 1.281-.938.526-3.8 3.18-2.862 2.653-5.111 5.669-7.026 6.517-1.908.847-4.688 1.499-5.158 2.489-.468.998-2.511 3.288-3.728 3.931 0 0 3.453-5.203 3.97-5.685.518-.484 1.767-.011 4.962-1.702 3.192-1.69 4.944-4.59 6.59-6.581 1.643-1.989 4.338-4.841 4.338-4.841s6.504-4.651 8.052-6.206c1.55-1.55 3.818-7.142 5.596-9.254 1.774-2.112 3.216.476 3.216.476Zm-13.234 25.05s-4.31 2.982-8.272 7.538c-3.964 4.556-2.02 3.87-2.496 7.854-.473 3.991 0 0-6.248 3.492-6.254 3.495-.038 1.82-2.466 6.727-2.432 4.901-3.583 4.652-2.103-1.351 1.473-6.005.632-2.006-6.015 1.906-6.648 3.901 1.44 4.488-.188 8.2-1.626 3.714-5.466 2.762-13.581 8.812-8.112 6.049 4.377-11.319 4.377-11.319s2.078-6.591 6.399-10.136c0 0 5.091-3.291 9.164-4.309 4.063-1.024 1.489-5.975 2.705-7.607 1.223-1.633 7.406-4.037 10.952-7.211 3.536-3.178 3.59-5.29 9.095-9.958 5.508-4.672 3.121-1.288 4.728-.156 1.612 1.128-6.051 7.518-6.051 7.518Zm-50.122 21.859c-4.492 4.169-8.028 8.911-11.032 10.237-2.994 1.323-7.371 2.351-8.106 3.912-.73 1.56-3.936 5.156-5.852 6.17 0 0 5.423-8.171 6.234-8.927.821-.76 2.785-.015 7.793-2.673 5.008-2.654 7.759-7.206 10.341-10.335 2.587-3.129 6.819-7.605 6.819-7.605s10.221-7.302 12.655-9.738c2.434-2.441 5.992-11.224 8.78-14.54 2.789-3.32 5.046.739 5.046.739-8.982 7.168-7.774 11.14-10.756 13.667 2.938-2.362 5.044-3.72 5.044-3.72s5.519-7.163 13.082-14.131c3.14-2.881-1.836 3.84-4.926 8.539-3.094 4.692-7.134 6.798-11.456 10.449-4.324 3.647-6.345 5.709-11.117 9.401-4.765 3.696-3.203 1.52 2.663-4.48 2.361-2.409 4.714-4.45 6.69-6.042-2.985 2.516-7.004 3.052-8.376 4.874-1.38 1.831-3.804 3.764-4.062 4.8-.255 1.036-1.907 2.39-3.487 4.403-1.581 2.015-1.481.831-5.977 5Zm-21.547 8.324c1.669-1.184 10.457-9.285 12.807-10.428 3.121-1.519-5.156 6.383-7.222 8.137-2.05 1.747-7.252 3.478-5.585 2.291Zm65.032-43.039 5.423-1.096c-1.686 1.346-6.699 6.586-7.967 8.104-1.264 1.528-3.297 2.602-5.007 3.959-1.716 1.356-.757 2.293-3.241 3.105-2.484.811-4.339 2.186-5.483 3.482-1.154 1.3-1.702 1.465-3.701 2.854-1.997 1.386-3.368 3.243-3.368 3.243l-2.645 1.991s1.756-3.61 3.481-4.863c1.724-1.249 3.359-3.345 5.12-4.281 1.755-.939 2.937-1.916 4.973-2.879 2.046-.969 1.112-.335 2.79-2.007 1.681-1.677 3.78-3.396 4.169-3.754.392-.366.26-1.636.945-1.922.682-.289 4.511-5.936 4.511-5.936Zm-72.091 53.78c-.464.899-.908 1.574-1.364 2.136.456-1.13.792-1.966 1.891-3.117-.159.281-.323.593-.527.981Zm182.244-11.978c-3.152-2.85-5.042-11.11-7.112-12.89-2.073-1.784-8.053-10.996-16.254-19.308-8.192-8.309-5.227-7.144-6.834-8.521-1.608-1.373-.053-9.187-10.456-12.477-10.397-3.284-13.585-21.2084-13.585-21.2084-6.705-6.8733-8.229-7.8667-18.999-20.8773 0 0-8.648-7.3267-9.932-9.8654-.049-.0027-.073-.0067-.112-.012a1.7736 1.7736 0 0 1-.146-.012c.01-.552-.007-.6333-.078-.028-.029 0-.062.0067-.001.0213-.065.0187-.256.0494-.789.1067-2.76.2974-2.76 3.5667-7.592 7.1307-4.835 3.5667-4.146 9.508-4.146 9.508s-4.138 3.2653-5.748 5.9387c-1.613 2.6773-8.054 9.2133-8.976 15.7453-.921 6.5384-.921 2.0824-3.912 4.1604-2.313 1.61-1.108.766-3.189 2.076.039-.02.08-.051.116-.075-.044.029-.071.044-.117.075l-.007.002c-.593.156-1.197.342-1.811.576-.108.042-.214.095-.328.138-.513.206-1.025.424-1.538.689-.284.149-.559.343-.836.512-.346.207-.695.396-1.031.64-.616.445-1.217.949-1.788 1.531-4.477 4.584-3.052 2.901-4.321 3.854 0-.073-.007-.073-.007.003-.292.217-2.341 1.971-2.801 2.316-.112.084-.224.156-.336.236-.35.252-.7.504-1.043.732-.175.115-.345.215-.513.321-.284.182-.57.363-.85.532-.42.251-.833.498-1.244.738-.029.014-.056.033-.085.05-.047.028-.093.055-.143.084-.382.228-.76.451-1.124.679-.198.123-.388.249-.581.377-.212.136-.429.274-.633.414-.246.176-.474.364-.71.549-.134.105-.281.207-.408.319-.354.302-.688.626-1 .98-.144.158-.268.301-.384.426-.061.075-.11.128-.165.187-.044.047-.092.097-.132.14-.053.057-.095.1-.141.145-.031.03-.064.066-.09.088a.878.878 0 0 1-.105.091c-.025.021-.051.044-.076.063-.024.016-.051.025-.072.037-.023.013-.048.024-.071.027-.014.005-.029.005-.046.005-.027 0-.056-.001-.08-.011-.007-.002-.008-.008-.016-.008-.364-.185-.718-1.345-4.144-1.592-.295-.021-.551-.038-.788-.05-.091-.007-.175-.011-.262-.016a9.2687 9.2687 0 0 0-.38-.016c-.089 0-.177-.003-.253-.003-.1 0-.188.003-.272.008-.059.003-.123.007-.171.013-.114.014-.214.038-.3.07-.03.013-.057.033-.088.049-.052.028-.101.057-.142.097-.019.019-.04.039-.056.063-.392.468-.282 1.575-1.207 3.991v.005c-.111.288-.235.591-.375.916a.214.214 0 0 1-.017.037c-.169.383-.359.788-.577 1.223-.044.093-.106.197-.155.296-.191.368-.389.744-.623 1.156-.146.263-.328.552-.496.831-.17.288-.324.558-.52.862-.385.616-.816 1.263-1.294 1.955-7.976 11.495 0 0-12.884 10.251a103.31 103.31 0 0 1-2.018 1.564c-.197.148-.373.276-.565.416-.399.298-.78.574-1.131.821-.18.127-.353.249-.517.361-.324.223-.627.416-.905.598-.13.078-.262.169-.382.24-.345.208-.657.385-.93.525-.023.013-.052.029-.075.041-.295.148-.548.255-.767.334-.066.024-.117.034-.172.053-.15.04-.29.073-.408.091-.052.005-.1.009-.146.012-.104.002-.199-.007-.279-.03-.029-.005-.061-.008-.087-.02-.1-.036-.177-.082-.246-.149l-.003-.003c-.175-.169-.251-.421-.341-.653-.006-.005-.008-.011-.011-.017-.021-.062-.052-.12-.077-.175a.5838.5838 0 0 0-.07-.095c-.024-.036-.045-.076-.077-.097a.4397.4397 0 0 0-.183-.105h-.01c-.03-.006-.071-.003-.104-.006-.066 0-.134 0-.214.018-.046.009-.102.026-.157.044-.092.03-.199.074-.316.132-.061.029-.116.052-.18.088-.193.106-.412.24-.673.418-4.608 3.168-8.902 0-8.902 0l-3.376 4.751s-.044.076-.101.175c-.007.012-.012.024-.024.038-.555.938-2.952 4.902-6.079 9.042-.014.02-.032.037-.042.058-.652.858-1.331 1.722-2.034 2.57-3.502 4.221-4.882 11.668-8.858 20.046h165.866c.016-.289.04-.6.083-.933.12-1.069-5.58-4.552-5.739-7.252-.136-2.344-7.938-7.481-9.696-10.763-.105-.466-.224-.924-.345-1.362.468-3.003-.927-2.418-2.308-7.088-.264-.896-.54-1.552-.819-2.116.083.024.164.08.243.14-.583-1.25-1.591-3.228-3.001-5.087-2.807-3.697-3.023-5.165-3.023-5.165v-6.448s-1.039-1.64-2.337-3.404l-.004-.003c-.426-.584-.883-1.177-1.338-1.729-.948-1.143-1.409-1.264-1.928-1.527-.51-.499-1.07-1.045-1.653-1.624-.136-.183-.256-.332-.409-.561-2.148-3.163-2.76-3.615-2.76-3.615s-2.495-1.872-4.34-3.776c0 0-6.668-21.1654-7.127-25.0254-.459-3.86-4.103-8.584-1.804-13.6333 2.3-5.0507 3.357-3.2667 5.823-8.02.257-.5014.904-10.832 1.012-13.92.686 2.48 6.634 8.4506 8.369 10.9586 4.139 5.9867 5.648 11.792 6.104 14.1707.921 4.7906 8.179 3.8333 10.187 8.3946-1.455 2.16-1.8-.0426-1.287 2.264.613 2.7707 1.148 5.3428 3.336 7.0278 1.423 1.103-.445 6.056.328 6.231.448.644.932 1.327 1.509 2.104 1.84 4.353 2.552 1.288 3.475 2.873.92 1.584 4.412 6.659 4.716 3.838.037-.358 8.789 8.46 8.759 8.178 7.758.366 5.994 12.563 7.136 12.872 5.109 1.38 12.885 12.628 17.03 15.602 4.138 2.969 35.719 28.398 35.719 28.398-8.292-6.865-20.183-16.602-21.935-18.182" fill="#fff"/><path fill-rule="evenodd" clip-rule="evenodd" d="M373.294 131.352c2.142 1.758 3.173 5.024 3.173 5.024s6.188 8.604 2.168 5.604c-4.021-2.997-5.927-2.521-6.731-4.364-.805-1.84 3.2-2.13-.094-4.065-3.292-1.935-3.71-3.916-2.979-.94.732 2.975.16 3.097-1.041.664-1.204-2.424 1.874-1.596-1.223-3.328-3.096-1.731-2.863.245-3.096-1.731-.239-1.98.727-1.634-1.236-3.896-1.965-2.254-4.1-3.733-4.1-3.733s-3.8-3.165-2.997-3.727c.793-.56-.388-2.236 2.34.079 2.726 2.313 2.757 3.359 4.505 4.933 1.761 1.574 4.824 2.764 5.429 3.576.602.806-.672 3.258 1.343 3.768 2.015.507 4.539 2.136 4.539 2.136M390.587 147.012s-4.611-4.047-2.366.48c2.244 4.528 7.636 9.255 3.792 8.225-3.845-1.026-2.204-.902-5.1-2.081-2.89-1.183.668-.449-4.76-2.488-5.436-2.039-7.258-4.647-7.088-2.117.164 2.541-2.034-2.687 2.788 3.79 4.816 6.483-.004 3.546 7.328 10.368 7.334 6.815 7.295 6.622 8.868 7.624 1.58 1.008 1.723-1.705.214-3.916-1.506-2.206-.27-4.413 3.046-1.432 3.31 2.976 5.5 7.062 4.799 4.638-.695-2.419-7.116-8.518-2.612-5.39 4.5 3.128 6.809 4.555 7.101 5.604.295 1.048 3.971 5.028 1.65.679-2.315-4.353-1.836-4.343.433-3.416 2.269.929 4.877 3.981 2.787.24-2.083-3.739.501-3.587-1.048-5.668-1.56-2.073-.646-3.147-2.918-4.076-2.269-.925-2.421.635-3.189.145-.76-.496-1.717-1.97-3.752-3.34-2.028-1.368-1.256.386-4.095-2.754-2.828-3.146-5.878-5.115-5.878-5.115M348.887 106.201c1.621 1.288 6.43 6.316 7.648 7.776 1.212 1.464 3.162 2.493 4.804 3.797 1.644 1.3.725 2.2 3.11 2.981 2.382.782 4.166 2.096 5.267 3.344 1.097 1.242 1.632 1.402 3.545 2.734 1.918 1.334 3.236 3.116 3.236 3.116l2.535 1.91s-1.685-3.462-3.339-4.668c-1.657-1.201-3.224-3.21-4.909-4.11-1.689-.898-2.821-1.838-4.783-2.764-1.954-.926-1.06-.315-2.672-1.926-1.612-1.608-3.63-3.254-4.004-3.605-.372-.348-.245-1.564-.902-1.84-.655-.273-4.334-5.693-4.334-5.693l-5.202-1.052M371.019 120.857c2.036 1.44 3.014 2.496 4.406 4.973 1.387 2.479 5.883 6.575 7.835 8.836 1.953 2.26 3.088 4.536 2.837 2.971-.242-1.567-2.134-4.435-3.037-4.941-.905-.507-1.653-2.54-3.663-4.29-2.004-1.75-2.181-2.356-2.274-3.096-.091-.738.605-1.83-1.426-3.368-2.029-1.536-4.346-4.24-4.346-4.24l-.332 3.155" fill="#fff"/><path d="M216.036 120.748c.076-.46.121-.88.134-1.287.034-.877-.366-.725-.134 1.287Z" fill="#fff"/><path d="M213.368 145.823c-2.366-.026-1.338-1.594-.566-2.366.771-.77 3.166.618 3.166.618s.641.718.616 1.181c-.027.465-.85.592-3.216.567Zm2.484 40.668c-.155 2.776-.734 2.737-1.892 1.888-1.158-.847-4.478-2.238-7.099-3.896-2.624-1.659-4.399-3.127-2.431-2.623 1.967.5 2.855-.463 2.238-1.736-.619-1.273 3.241-2.044 5.709-2.008 2.471.039 2.819 1.312 3.475 2.661 0 0 .153 2.932 0 5.714Zm-25.351-40.307c-2.752.951-1.852-.876-1.928-1.493-.079-.616.924-.462 1.825-.308.9.154 1.647-.952 1.647-.952.649-.663 1.183.308 1.439 1.106.26.799-.231.695-2.983 1.647Zm-.617 5.065c-1.568 1.006-1.235-1.31-1.287-1.876-.051-.568 1.125-.69 1.287-.77.668-.336 1.569 1.644 0 2.646Zm40.433 25.775c-1.131-1.335-1.953-1.388-1.677-2.831.273-1.437-1.099-2.21-2.438-4.577-1.337-2.367.979-2.365 2.162-4.629 1.184-2.264-1.647-3.652-4.94-4.787-3.29-1.129-.512-3.497 1.286-4.473 1.802-.979 1.083-1.906-.102-5.147-1.184-3.239-.668-3.084.309-5.344.977-2.261-1.955-3.452-4.064-2.833-2.109.618-1.595-3.499-.567-6.434 1.03-2.93-1.336-3.856-3.189-10.337-.64-2.241-.937-3.82-1.061-4.885-.171 1.044-.524 2.32-1.202 4.32-.976 2.88-.669 4.32-.414 7.201.254 2.881-2.159 4.836-2.723 6.019-.567 1.182 1.181 1.08 2.367 2.057 1.182.98-.772 1.184-2.986 1.956-2.213.772-.668 1.493.104 3.344.772 1.852-1.185.72-4.785 1.593-3.6.875 3.293 3.499 3.961 5.763.67 2.263-2.828-1.185-5.504.669-2.676 1.854 4.011 3.91 6.276 6.07 2.264 2.161-1.697 1.182-4.217 1.08-2.523-.103.051.928 1.901 2.47 1.852 1.543-1.492.771-3.857.408-2.368-.357 1.389 1.494 2.573 3.656 1.182 2.16-1.39 4.064-4.425 4.17-3.036.101-.927-1.651.516-3.81 1.439-2.161.359-1.39-.464-2.984-.824-1.593 1.183-2.057.976-3.91-.204-1.851-3.961-1.286-4.577-2.626-.619-1.336 2.365-1.644 2.981-2.84.62-1.198-1.849-.294-2.568-1.016-.721-.72.152-1.492 2.519-3.858 2.366-2.367.257-3.138-1.699-3.447-1.955-.308-.204-1.388-.309-2.675-.103-1.285-1.543-2.316-2.726-2.881-1.182-.564-.257-2.007.566-4.372.822-2.365-1.8-1.852-1.8-3.448 0-1.593-.206-2.313-1.646-5.041-1.441-2.727-.464-6.584-.62-7.923-.153-1.335-.306 2.111-.666 3.912-.36 1.801-.668 3.343-.876 5.452-.204 2.108-2.416 4.735-4.32 7.307-1.904 2.569 1.081 1.542 2.521 2.468 1.44.925.257 1.234-.771 1.645-1.029.411-2.316 1.545-2.181 3.499.131 1.954-1.731 1.801-4.609 1.544-2.882-.259-.67 1.389 1.078 2.778 1.75 1.388 3.242 2.16 3.5 3.239.256 1.081-1.132 1.697-3.088 1.133-1.954-.566-1.697-1.184-3.445-.566-1.751.618-1.032 1.801.924 2.25 1.956.448 4.836.579 5.197 1.968.36 1.39-5.273 1.311-6.045 1.466-.772.153 3.395 2.856 4.217 4.09.819 1.234-.977-.077-3.137-.54-2.16-.464 2.084 1.311 2.931 2.931.85 1.621-1.079-.231-3.548 0-2.468.232.385.695 1.774 1.852 1.388 1.157 1.312 3.704 1.312 3.704l4.399 3.705s11.78 6.662 14.2 9.6c2.417 2.938 8.127 4.214 11.779 5.654 3.652 1.44 2.521 1.44 2.468-2.828-.05-4.271.309-5.711.825-6.844.513-1.134 2.828-.462 5.709 1.956 2.882 2.416 5.195.666 6.483-.876 1.287-1.542.565-2.831-.568-4.167M448.206 121.598c.07-.415.111-.795.123-1.163.032-.793-.333-.656-.123 1.163ZM445.798 144.256c-2.137-.023-1.211-1.442-.511-2.139.695-.699 2.858.559 2.858.559s.58.648.557 1.068c-.024.418-.767.537-2.904.512Zm2.241 36.741c-.138 2.511-.662 2.476-1.709 1.708-1.043-.765-4.043-2.02-6.412-3.517-2.371-1.5-3.976-2.827-2.197-2.374 1.777.456 2.578-.416 2.022-1.566-.557-1.152 2.928-1.85 5.159-1.816 2.231.037 2.547 1.188 3.137 2.406 0 0 .14 2.651 0 5.159Zm-22.904-36.416c-2.485.859-1.67-.791-1.741-1.348-.069-.557.836-.419 1.649-.279.814.139 1.488-.86 1.488-.86.586-.598 1.068.279 1.3.999.234.721-.209.627-2.696 1.488Zm-.557 4.579c-1.417.906-1.113-1.187-1.161-1.695-.047-.515 1.017-.627 1.161-.7.605-.301 1.417 1.487 0 2.395Zm36.533 23.285c-1.024-1.208-1.765-1.253-1.516-2.556.247-1.303-.993-1.997-2.201-4.139-1.209-2.136.883-2.136 1.952-4.181 1.068-2.045-1.485-3.3-4.464-4.323-2.971-1.024-.461-3.16 1.163-4.044 1.628-.884.978-1.718-.092-4.646-1.071-2.928-.606-2.79.278-4.831.883-2.04-1.766-3.119-3.672-2.56-1.905.557-1.44-3.16-.512-5.809.93-2.652-1.206-3.488-2.881-9.344-.579-2.026-.848-3.45-.96-4.414-.153.944-.472 2.096-1.084 3.903-.883 2.603-.604 3.905-.375 6.507.23 2.601-1.949 4.37-2.46 5.438-.513 1.068 1.07.976 2.138 1.86 1.068.884-.698 1.068-2.698 1.767-1.997.696-.602 1.345.095 3.02.697 1.673-1.069.652-4.324 1.44-3.252.791 2.976 3.161 3.58 5.207.605 2.045-2.556-1.07-4.975.605-2.413 1.673 3.627 3.529 5.671 5.483 2.045 1.952-1.531 1.07-3.809.976-2.278-.092.045.837 1.718 2.232 1.674 1.393-1.348.697-3.485.37-2.139-.325 1.256 1.35 2.324 3.303 1.068 1.951-1.257 3.669-3.997 3.764-2.743.093-.835-1.488.465-3.441 1.3-1.951.325-1.255-.417-2.694-.744-1.442 1.066-1.861.882-3.534-.186-1.671-3.581-1.163-4.14-2.371-.557-1.207 2.139-1.485 2.696-2.568.562-1.08-1.67-.265-2.322-.917-.652-.651.14-1.348 2.28-3.486 2.134-2.138.229-2.834-1.538-3.114-1.766-.279-.184-1.255-.278-2.416-.092-1.163-1.395-2.092-2.464-2.604-1.067-.511-.231-1.814.513-3.95.743-2.137-1.627-1.674-1.627-3.116 0-1.44-.186-2.089-1.488-4.554-1.301-2.462-.418-5.95-.557-7.156-.14-1.21-.279 1.905-.605 3.53-.326 1.63-.604 3.022-.79 4.93-.185 1.904-2.184 4.274-3.904 6.597-1.72 2.325.976 1.396 2.278 2.232 1.301.837.232 1.116-.698 1.487-.929.372-2.092 1.394-1.97 3.161.121 1.767-1.563 1.628-4.164 1.395-2.604-.234-.604 1.253.974 2.509 1.582 1.253 2.93 1.952 3.16 2.928.235.976-1.021 1.535-2.786 1.024-1.767-.512-1.535-1.071-3.115-.512-1.58.556-.931 1.628.836 2.032 1.767.404 4.369.524 4.695 1.779.325 1.254-4.764 1.184-5.462 1.324-.694.138 3.066 2.581 3.81 3.694.742 1.118-.882-.069-2.834-.486-1.95-.419 1.883 1.184 2.648 2.648.768 1.465-.974-.208-3.205 0-2.231.209.348.628 1.604 1.674 1.253 1.046 1.184 3.347 1.184 3.347l3.973 3.347s10.646 6.018 12.831 8.672c2.185 2.657 7.341 3.808 10.643 5.106 3.3 1.306 2.278 1.306 2.23-2.552-.046-3.858.279-5.161.744-6.184.466-1.021 2.555-.417 5.158 1.766 2.604 2.188 4.696.604 5.86-.79 1.161-1.393.51-2.554-.514-3.765M35.6331 129.725c.0747-.462.1213-.88.1347-1.29.0346-.876-.3667-.724-.1347 1.29Z" fill="#fff"/><path d="M32.9668 154.802c-2.368-.028-1.34-1.597-.568-2.369.772-.772 3.1653.617 3.1653.617s.6414.721.6174 1.184c-.028.463-.8494.592-3.2147.568Zm2.48 40.664c-.1534 2.779-.732 2.739-1.8907 1.888-1.1573-.847-4.476-2.235-7.0973-3.893-2.624-1.659-4.4-3.126-2.4307-2.623 1.9667.5 2.8534-.464 2.236-1.737-.6173-1.274 3.2427-2.047 5.712-2.008 2.468.04 2.816 1.313 3.4707 2.664 0 0 .1546 2.933 0 5.709Zm-25.3493-40.305c-2.752.95-1.8507-.876-1.928-1.494-.0773-.617.9253-.462 1.8266-.308.9.155 1.6467-.95 1.6467-.95.648-.664 1.1813.306 1.4387 1.105.2586.797-.2307.693-2.984 1.647Zm-.6174 5.068c-1.568 1.002-1.2333-1.314-1.284-1.879-.052-.568 1.124-.692 1.284-.771.6693-.336 1.5707 1.647 0 2.65Zm40.436 25.773c-1.1333-1.339-1.9547-1.388-1.6787-2.831.2707-1.44-1.0986-2.21-2.436-4.578-1.34-2.364.9761-2.364 2.1601-4.63 1.1813-2.264-1.6467-3.653-4.9401-4.785-3.2906-1.132-.5133-3.496 1.2881-4.477 1.8-.975 1.0799-1.9-.1041-5.142-1.184-3.241-.6693-3.088.308-5.345.9774-2.261-1.9559-3.452-4.0626-2.835-2.1093.618-1.5947-3.497-.5667-6.43 1.0294-2.932-1.3373-3.86-3.1907-10.34-.64-2.243-.9373-3.819-1.0599-4.884-.172 1.041-.5241 2.317-1.2014 4.318-.9787 2.88-.6693 4.322-.4146 7.202.2533 2.881-2.1574 4.836-2.7241 6.018-.5666 1.184 1.1827 1.082 2.3667 2.059 1.1827.979-.772 1.184-2.9853 1.953-2.212.772-.6667 1.492.104 3.346.772 1.85-1.184.72-4.784 1.594-3.6.872 3.292 3.498 3.9613 5.762.668 2.264-2.8293-1.184-5.504.669-2.676 1.852 4.0107 3.909 6.2747 6.072 2.264 2.159-1.696 1.181-4.2173 1.08-2.5214-.105.0519.925 1.9039 2.469 1.8507 1.542-1.4933.771-3.8599.41-2.3654-.36 1.3906 1.494 2.5733 3.656 1.1826 2.158-1.3907 4.062-4.4254 4.164-3.0346.104-.9253-1.646.5147-3.806 1.4387-2.161.36-1.389-.4613-2.984-.824-1.596 1.1813-2.057.976-3.909-.204-1.852-3.9614-1.288-4.5787-2.625-.6187-1.339 2.3667-1.647 2.984-2.844.6187-1.195-1.8506-.295-2.572-1.016-.7213-.722.1547-1.49 2.5227-3.856 2.3653-2.37.256-3.139-1.7014-3.448-1.956-.31-.2026-1.388-.3066-2.674-.1027-1.288-1.5453-2.316-2.728-2.88-1.1813-.568-.2574-2.008.568-4.374.8213-2.366-1.8013-1.851-1.8013-3.446 0-1.597-.2054-2.316-1.6454-5.042-1.4414-2.728-.464-6.586-.6186-7.922-.1547-1.337-.3094 2.108-.6681 3.91-.3613 1.8-.6693 3.342-.8759 5.452-.204 2.108-2.416 4.733-4.32 7.306-1.9027 2.572 1.08 1.543 2.52 2.467 1.4413.928.2572 1.236-.7707 1.649-1.0294.407-2.316 1.542-2.18 3.498.1307 1.956-1.7307 1.8-4.6107 1.542-2.88-.257-.668 1.388 1.0813 2.778 1.748 1.388 3.2387 2.16 3.4974 3.241.2573 1.08-1.132 1.697-3.088 1.132-1.9534-.565-1.696-1.184-3.4467-.565-1.748.614-1.028 1.8.928 2.248 1.9534.449 4.8347.581 5.1947 1.97.3613 1.388-5.2733 1.312-6.044 1.466-.772.153 3.3946 2.854 4.2146 4.089.8214 1.233-.976-.079-3.136-.54-2.16-.463 2.084 1.311 2.9334 2.931.8493 1.621-1.0814-.23-3.5507 0-2.4667.233.388.694 1.776 1.853 1.388 1.156 1.3107 3.705 1.3107 3.705l4.3987 3.704s11.7813 6.662 14.1986 9.599c2.42 2.937 8.128 4.211 11.78 5.653 3.652 1.438 2.5213 1.438 2.4693-2.83-.0493-4.268.3094-5.708.8254-6.842.5133-1.129 2.8266-.462 5.708 1.954 2.8813 2.42 5.196.672 6.484-.872 1.2853-1.544.564-2.828-.5667-4.167" fill="#fff"/><path d="M37.0116 199.549s20.976 2.093 32.3693-5.309c11.3933-7.407 21.4587-10.079 29.0547-12.73 7.5964-2.653 23.9384-11.2 6.4624-6.83-17.4771 4.366-28.3011 12.344-41.2131 17.468-12.9147 5.128-13.104 6.268-16.7107 4.937-3.6093-1.328-5.1986-4.88-6.9426-6.437-1.7414-1.56-.9907-5.722-2.1521-4.008-1.1613 1.712-.8679 12.909-.8679 12.909Z" fill="#fff"/><path d="M125.971 176.958c5.714 11.426 24.117.744 33.993 4.552 9.873 3.801 33.99 8.353 35.7 5.129 1.709-3.225 2.467-7.627-13.674-12.833-16.14-5.206-26.585-11.091-27.154-11.471-.571-.38-3.799 7.785-17.661 8.356-13.865.571-25.462-1.9-29.441-2.091-3.98-.188 16.337 4.558 18.237 8.358M210.351 187.151s4.113 3.417 11.329 4.62c7.216 1.2 13.04-3.23 21.521-4.62 8.483-1.396 23.107-1.014 32.474-1.14 9.366-.128 14.556-1.962 9.177-2.722-5.379-.761-14.179-1.71-26.776-1.71-12.596 0-16.141.189-21.457.76-5.318.57-6.9 2.088-9.686 2.216-2.785.128-3.924 1.137-6.202 1.393-2.279.252-1.772 1.456-4.242 1.708-2.469.253-6.138-.505-6.138-.505M296.5 184.553s33.897-2.09 46.049 0c12.153 2.088 11.68 4.748-13.388 5.128-25.067.38-33.518-.38-41.018 0-7.501.38-.189-1.141 2.754-2.185 2.944-1.044 5.603-2.943 5.603-2.943Z" fill="#fff"/></svg>
