<svg width="0" height="0" class="hidden">
    <symbol fill="none" xmlns="http://www.w3.org/2000/svg" viewBox="0 0 16 16" id="call">
        <path d="M11 10C10 11 10 12 9 12C8 12 7 11 6 10C5 9 4 8 4 7C4 6 5 6 6 5C7 4 4 1 3 1C2 1 0 4 0 4C0 6 2.055 10.055 4 12C5.945 13.945 10 16 12 16C12 16 15 14 15 13C15 12 12 9 11 10Z" fill="#fff"></path>
    </symbol>
    <symbol fill="none" xmlns="http://www.w3.org/2000/svg" viewBox="0 0 16 16" id="location">
        <path d="M10.4057 15.3942L8.14265 8.63992H0.788086L14.9314 0.702637L10.4057 15.3942Z" fill="#256E99"></path>
    </symbol>
    <symbol xmlns="http://www.w3.org/2000/svg" viewBox="0 0 32 32" id="arrow">
        <path d="M21.18 30 7 15.87 20.91 2 24 5 13 15.87 24 27l-2.82 3Z"></path>
    </symbol>
    <symbol xmlns="http://www.w3.org/2000/svg" viewBox="0 0 16 16" id="close">
        <path fill="#303030" d="M15.14 13.6 13.73 15 1 2.4 2.41 1z"></path>
        <path fill="#303030" d="M2.41 15 1 13.6 13.73 1l1.41 1.4z"></path>
    </symbol>
    <symbol xmlns="http://www.w3.org/2000/svg" viewBox="0 0 512 512" id="phone">
        <path d="m497.39 361.8-112-48a24 24 0 0 0-28 6.9l-49.6 60.6A370.66 370.66 0 0 1 130.6 204.11l60.6-49.6a23.94 23.94 0 0 0 6.9-28l-48-112A24.16 24.16 0 0 0 122.6.61l-104 24A24 24 0 0 0 0 48c0 256.5 207.9 464 464 464a24 24 0 0 0 23.4-18.6l24-104a24.29 24.29 0 0 0-14.01-27.6z"></path>
    </symbol>
    <symbol xmlns="http://www.w3.org/2000/svg" xml:space="preserve" viewBox="0 0 400 400" id="mail">
    <path d="M0 127.5v146.72l104.8-68.12zM400 274.22V127.5l-104.8 78.6zM200 277.5l-69.64-52.23L0 310v30h400v-30l-130.36-84.73z"></path>
        <path d="m0 90 200 150L400 90V60H0z"></path>
  </symbol>
    <symbol xmlns="http://www.w3.org/2000/svg" xml:space="preserve" viewBox="0 0 466.58 466.58" id="geo">
    <path d="M233.3 0C148.2 0 78.95 69.23 78.95 154.33c0 34.28 21.89 90.16 66.9 170.84a1872.92 1872.92 0 0 0 64.49 106.64l22.94 34.77 22.94-34.77c1.32-2 32.64-49.58 64.49-106.64 45.02-80.68 66.9-136.56 66.9-170.84C387.62 69.23 318.4 0 233.3 0zm0 233.3a80 80 0 1 1 0-160.01 80 80 0 0 1 0 160z"></path>
  </symbol>
    <symbol xmlns="http://www.w3.org/2000/svg" xml:space="preserve" viewBox="0 0 31.62 31.62" id="calendar">
    <path d="M31.43 4.95c0-1.2-.97-2.17-2.16-2.17H25.6V.88c0-.48-.4-.88-.88-.88h-1.9c-.49 0-.89.4-.89.88v1.9H9.8V.88C9.8.4 9.4 0 8.92 0H7.14c-.48 0-.88.4-.88.88v1.9H2.35c-1.2 0-2.16.97-2.16 2.17v7.7h1.14V29.4c0 1.23 1 2.22 2.22 2.22h24.4c1.22 0 2.22-1 2.22-2.22V12.65h1.26v-7.7zm-4.8 20.78c0 1.23-1 2.22-2.23 2.22H7.22c-1.23 0-2.22-1-2.22-2.22V12.65h21.62v13.08z"></path>
        <path d="M8.03 15.05h3.54v3.67H8.03zM14.1 15.05h3.54v3.67H14.1zM20.17 15.05h3.54v3.67h-3.54zM8.03 21.5h3.54v3.67H8.03zM14.1 21.5h3.54v3.67H14.1zM20.17 21.5h3.54v3.67h-3.54z"></path>
  </symbol>
</svg>
