<?xml version="1.0" standalone="no"?>
<!DOCTYPE svg PUBLIC "-//W3C//DTD SVG 20010904//EN"
 "http://www.w3.org/TR/2001/REC-SVG-20010904/DTD/svg10.dtd">
<svg version="1.0" xmlns="http://www.w3.org/2000/svg"
 width="300.000000pt" height="300.000000pt" viewBox="0 0 300.000000 300.000000"
 preserveAspectRatio="xMidYMid meet">
<metadata>
Created by potrace 1.14, written by Peter Selinger 2001-2017
</metadata>
<g transform="translate(0.000000,300.000000) scale(0.100000,-0.100000)"
fill="#000000" stroke="none">
<path d="M1360 2368 c-6 -13 -20 -39 -31 -58 -31 -51 -168 -287 -198 -341
-113 -201 -397 -688 -401 -689 -3 0 -23 32 -45 72 -22 40 -50 89 -62 111 l-21
38 -42 -73 c-23 -40 -51 -85 -61 -100 -10 -15 -19 -30 -19 -32 0 -3 -13 -27
-29 -53 -29 -50 -281 -486 -337 -585 l-33 -58 1444 0 1444 0 -71 123 c-39 67
-79 137 -89 155 -11 17 -28 48 -39 67 -48 84 -61 107 -135 235 -43 74 -110
191 -150 260 -92 158 -102 176 -204 354 -45 80 -86 146 -90 146 -4 0 -23 -28
-43 -62 -165 -287 -230 -398 -233 -398 -2 0 -30 45 -62 101 -32 55 -71 122
-86 147 -15 26 -32 56 -37 67 -6 11 -14 27 -20 35 -19 28 -200 343 -200 347 0
3 -8 17 -18 31 -11 15 -32 52 -49 82 -42 78 -57 100 -66 100 -4 0 -12 -10 -17
-22z"/>
</g>
</svg>
