<?xml version="1.0" standalone="no"?>
<!DOCTYPE svg PUBLIC "-//W3C//DTD SVG 20010904//EN"
 "http://www.w3.org/TR/2001/REC-SVG-20010904/DTD/svg10.dtd">
<svg version="1.0" xmlns="http://www.w3.org/2000/svg"
 width="700.000000pt" height="700.000000pt" viewBox="0 0 700.000000 700.000000"
 preserveAspectRatio="xMidYMid meet">
<metadata>
Created by potrace 1.14, written by Peter Selinger 2001-2017
</metadata>
<g transform="translate(0.000000,700.000000) scale(0.100000,-0.100000)"
fill="#000000" stroke="none">
<path d="M3479 6436 c-12 -12 -453 -74 -468 -67 -10 6 -128 -8 -306 -35 -610
-92 -761 -114 -784 -114 -18 0 5 -18 77 -60 55 -33 105 -60 109 -60 4 0 99 18
211 41 183 38 202 44 196 61 -3 10 -2 18 2 18 7 0 197 -170 202 -181 4 -8 -35
-19 -72 -19 -41 0 -127 87 -120 122 5 22 5 22 -18 -4 -20 -23 -42 -31 -178
-58 -85 -17 -163 -35 -172 -40 -39 -22 -81 -10 -183 50 -98 58 -102 59 -155
53 -65 -7 -77 -14 -85 -54 -4 -16 -10 -29 -15 -29 -14 0 -98 -196 -88 -206 2
-1 66 9 143 22 77 13 147 23 155 21 8 -2 -22 -9 -67 -16 -46 -8 -83 -17 -83
-20 0 -4 105 -26 233 -49 221 -41 241 -42 428 -42 l195 0 50 35 c58 42 72 28
20 -21 l-36 -34 207 -2 c115 -1 222 -1 239 -1 24 2 34 -4 47 -27 9 -15 17 -31
17 -34 0 -3 -114 -6 -254 -6 l-254 0 -7 23 -8 22 -4 -22 c-5 -27 4 -27 -153
-8 -207 24 -188 16 83 -40 244 -49 303 -65 245 -65 -29 0 -546 103 -623 124
-27 8 -81 17 -120 20 -38 3 -113 15 -165 26 -83 18 -99 25 -128 55 -27 28 -38
34 -55 28 -12 -4 -40 -8 -62 -8 -22 0 -44 -6 -48 -12 -4 -7 -18 -13 -29 -13
-12 0 -49 -8 -82 -17 -51 -14 -70 -26 -117 -75 -34 -35 -65 -58 -78 -58 -28 0
-27 7 14 62 40 55 87 82 170 97 32 6 62 16 66 23 4 7 22 53 40 103 17 49 37
95 45 101 15 12 60 122 53 129 -3 2 -45 -2 -94 -10 -50 -8 -124 -17 -166 -19
-93 -6 -233 -24 -274 -36 -97 -29 -520 -119 -527 -112 -4 4 49 21 119 36 71
16 135 33 143 38 12 7 10 8 -5 4 -11 -3 -101 -19 -200 -36 -192 -33 -226 -46
-262 -100 -28 -40 -28 -51 -8 -375 8 -132 15 -273 17 -312 2 -82 12 -90 48
-40 26 35 235 293 256 316 8 8 16 12 19 9 6 -5 -194 -256 -258 -325 -22 -23
-27 -36 -20 -45 14 -18 43 -108 35 -108 -4 0 -16 -7 -26 -15 -19 -14 -17 -17
28 -74 51 -66 70 -114 268 -691 55 -162 102 -296 103 -298 2 -2 89 58 195 133
106 75 194 134 197 131 3 -3 3 -16 -1 -30 -4 -17 -53 -56 -168 -137 -207 -143
-209 -145 -197 -175 11 -30 -6 -39 -56 -31 -31 5 -47 -3 -165 -89 -72 -52
-139 -94 -148 -94 -25 -1 24 -40 50 -40 19 0 84 -46 395 -277 106 -79 112 -86
118 -126 8 -55 -8 -209 -35 -324 -20 -84 -23 -92 -40 -83 -10 6 -21 7 -23 3
-3 -5 -28 -117 -58 -250 -48 -223 -51 -244 -37 -260 13 -15 14 -27 5 -76 l-10
-57 76 -79 c69 -70 94 -111 68 -111 -5 0 -41 34 -80 77 -41 43 -76 72 -80 67
-5 -5 -25 -81 -46 -169 -20 -87 -39 -163 -41 -167 -11 -17 59 -98 118 -138 35
-23 63 -49 63 -58 0 -9 9 -18 20 -20 11 -2 46 -24 78 -48 32 -25 84 -57 115
-71 31 -15 59 -30 62 -35 3 -4 32 -19 65 -33 33 -15 87 -39 120 -55 33 -15 92
-37 132 -49 39 -12 73 -24 75 -29 3 -7 181 -97 223 -113 11 -4 39 -14 63 -23
23 -9 58 -16 78 -16 19 0 53 -9 76 -21 22 -11 91 -40 152 -64 110 -43 172 -70
336 -147 47 -22 112 -50 145 -63 79 -31 191 -86 239 -119 83 -56 391 -193 471
-210 77 -17 163 -7 238 28 32 14 126 49 210 77 84 28 213 82 287 119 74 37
148 70 165 74 16 4 63 23 103 43 40 19 92 38 115 41 43 5 118 41 195 93 24 16
45 29 47 29 3 0 58 27 124 59 65 32 129 62 142 66 13 4 52 21 87 36 34 16 65
29 68 29 3 0 38 22 77 50 53 36 94 55 152 70 66 18 195 81 195 96 0 2 -29 -7
-64 -20 l-64 -24 -28 29 c-15 16 -26 30 -23 32 2 2 39 11 82 21 73 17 79 17
97 1 17 -16 22 -15 87 15 77 36 104 56 97 75 -6 14 55 49 106 60 45 10 240
104 310 149 30 20 64 39 75 42 37 12 91 62 108 101 18 42 58 606 61 863 2 142
16 242 46 325 12 34 22 107 29 229 7 98 11 180 9 181 -2 2 -34 -142 -72 -320
-67 -315 -78 -347 -107 -329 -5 3 -9 17 -9 31 0 52 130 629 150 668 18 34 21
52 16 115 -4 62 22 561 50 940 l6 85 -44 -75 c-24 -41 -158 -280 -298 -530
l-255 -454 -116 -403 c-63 -222 -112 -402 -108 -401 4 2 131 121 282 265 151
145 286 272 300 284 24 18 26 18 20 2 -6 -17 -5 -17 15 1 12 11 25 17 28 14 3
-3 -144 -150 -327 -326 l-332 -320 2 -233 c2 -129 5 -260 6 -291 2 -32 -1 -58
-6 -58 -5 0 -9 -54 -9 -123 0 -106 4 -134 25 -197 14 -41 24 -79 22 -84 -5
-14 -40 42 -66 104 -13 30 -32 69 -42 86 -10 17 -19 45 -19 62 0 17 -11 55
-24 84 -13 29 -50 118 -81 198 -53 135 -56 145 -39 157 10 7 21 10 26 5 4 -4
45 -108 91 -230 46 -122 86 -220 89 -216 3 3 4 41 1 86 -4 49 -2 82 4 86 7 5
8 62 5 160 -4 142 -6 152 -23 147 -13 -5 -20 0 -24 17 -24 102 -154 772 -150
778 3 4 -43 243 -100 531 -58 288 -105 525 -105 526 0 2 -11 1 -25 -3 -30 -7
-31 2 -8 51 15 31 33 47 33 28 0 -16 222 -1118 226 -1123 3 -2 34 27 69 65 49
54 66 67 75 58 10 -9 -2 -28 -54 -89 -50 -57 -66 -82 -63 -98 3 -11 34 -163
68 -336 34 -173 66 -319 71 -325 6 -6 9 32 8 105 -2 63 -2 117 0 120 1 3 4 28
5 55 3 56 196 744 221 788 12 21 174 563 174 581 0 2 -14 9 -31 15 -55 19
-413 223 -431 245 -13 15 -17 38 -17 86 l2 65 8 -69 c5 -38 10 -70 12 -71 23
-17 458 -255 466 -255 6 0 11 -1 11 -2 0 -2 -33 -119 -73 -260 -40 -142 -71
-258 -68 -258 3 0 132 224 287 498 l280 499 -17 39 c-10 21 -18 51 -18 66 -1
15 -5 30 -11 33 -5 3 -10 22 -10 41 0 20 -5 34 -12 34 -28 0 -114 52 -125 76
-9 19 -9 34 1 67 11 36 14 39 21 22 39 -97 56 -125 84 -139 16 -9 32 -12 35
-8 10 17 -13 832 -25 854 -20 40 -71 87 -106 99 -18 6 -103 16 -188 23 l-154
12 -128 86 -128 87 -163 26 c-254 39 -278 37 -822 -60 -403 -72 -588 -98 -569
-81 2 2 230 44 507 92 285 50 492 91 480 95 -19 5 -292 45 -695 103 -89 13
-99 13 -254 -15 -89 -16 -164 -27 -167 -24 -3 2 -10 1 -16 -4 -12 -10 -212
-50 -286 -58 -44 -4 -45 -3 -56 29 -6 18 -14 41 -19 51 -6 14 -2 17 26 16 19
0 43 -4 54 -9 18 -7 19 -8 3 -15 -20 -8 -24 -40 -7 -50 6 -4 13 2 16 14 6 24
9 25 128 46 50 8 100 18 113 20 16 4 22 1 22 -11 0 -11 6 -15 20 -11 11 3 81
16 155 28 74 13 133 24 132 25 -12 12 -414 66 -502 68 -60 1 -127 8 -148 15
-21 7 -40 11 -42 9 -3 -2 0 -19 5 -38 13 -47 5 -50 -10 -3 -7 21 -18 41 -23
45 -6 4 -43 10 -82 13 -69 7 -73 6 -263 -65 -174 -65 -222 -76 -222 -53 0 4
74 35 165 67 91 32 168 63 171 67 5 9 1 12 -7 5z m431 -146 c0 -5 -4 -10 -10
-10 -5 0 -10 5 -10 10 0 6 5 10 10 10 6 0 10 -4 10 -10z m-127 -127 c-7 -2
-19 -2 -25 0 -7 3 -2 5 12 5 14 0 19 -2 13 -5z m-50 -10 c-7 -2 -19 -2 -25 0
-7 3 -2 5 12 5 14 0 19 -2 13 -5z m-283 -27 c0 -36 -90 -51 -215 -35 -52 7
-92 16 -89 21 3 4 35 8 72 9 37 0 96 6 132 14 94 19 100 19 100 -9z m-1191
-148 c51 -31 79 -54 70 -56 -16 -3 -163 80 -174 99 -13 21 22 6 104 -43z m981
2 c349 -11 658 -20 686 -20 49 0 51 -1 51 -27 0 -16 4 -38 8 -50 7 -23 7 -23
-86 -18 -78 5 -918 29 -1249 37 -52 2 -117 -1 -145 -4 -47 -7 -48 -7 -12 3 37
11 46 22 27 34 -6 4 -4 17 5 36 12 23 22 29 48 29 17 0 318 -9 667 -20z m2073
-38 c108 -22 199 -41 202 -44 11 -10 -22 -59 -44 -65 -30 -7 -347 4 -386 14
-18 5 53 10 185 13 l215 5 -140 28 c-77 16 -160 35 -185 44 -25 8 -51 17 -58
19 -13 4 -8 24 6 24 4 0 96 -17 205 -38z m-869 -22 c298 -36 387 -50 313 -50
-15 0 -141 14 -280 31 -138 17 -271 28 -295 26 -24 -3 -52 -3 -62 0 -21 6 -36
33 -17 33 7 0 160 -18 341 -40z m-2259 20 c-3 -5 -21 -9 -38 -9 l-32 1 30 8
c43 11 47 11 40 0z m-82 -17 c-7 -2 -21 -2 -30 0 -10 3 -4 5 12 5 17 0 24 -2
18 -5z m312 -4 c11 -16 1 -20 -35 -12 -29 5 -31 7 -15 14 29 11 43 10 50 -2z
m-372 -6 c-7 -2 -19 -2 -25 0 -7 3 -2 5 12 5 14 0 19 -2 13 -5z m-60 -10 c-7
-2 -19 -2 -25 0 -7 3 -2 5 12 5 14 0 19 -2 13 -5z m4115 -9 c-15 -15 -28 -16
-130 -4 -160 17 -160 18 2 19 134 1 143 0 128 -15z m-1991 -26 c27 -12 26 -13
-26 -16 -57 -3 -88 11 -61 29 16 10 43 6 87 -13z m1713 -13 c0 -11 -30 -14
-142 -17 -79 -2 -146 -2 -150 -1 -3 2 -4 11 -2 21 5 15 19 17 149 14 115 -2
145 -6 145 -17z m310 -25 c4 -28 0 -41 -10 -35 -5 3 -10 20 -10 38 0 31 16 28
20 -3z m-1985 -36 c132 -25 241 -47 242 -48 1 -1 -1 -20 -4 -44 -4 -33 -10
-42 -25 -42 -17 0 -440 81 -505 97 -19 4 -21 10 -17 36 10 56 12 59 41 53 16
-3 136 -27 268 -52z m-2365 2 c0 -21 -7 -24 -114 -46 -117 -24 -130 -30 -156
-78 l-21 -37 6 34 c12 76 48 104 160 124 107 20 125 20 125 3z m3439 -9 c-15
-12 -50 -39 -78 -59 l-52 -38 -172 -11 c-95 -6 -199 -9 -232 -6 -65 5 -240 68
-265 94 -13 14 -13 15 0 11 8 -3 59 -20 112 -37 l97 -32 243 14 243 13 55 36
c62 41 89 49 49 15z m244 -21 c85 -11 116 -19 147 -40 22 -14 40 -31 40 -36 0
-15 -50 0 -92 28 -27 17 -64 28 -140 38 -57 8 -110 16 -118 18 -37 9 65 4 163
-8z m-1955 -13 c-21 -2 -55 -2 -75 0 -21 2 -4 4 37 4 41 0 58 -2 38 -4z m1907
-43 c4 -6 -21 -10 -68 -10 -41 0 -110 -3 -153 -6 -43 -4 -76 -3 -71 1 4 5 51
12 105 15 153 11 180 11 187 0z m-2130 -30 l50 -21 -63 5 c-68 5 -78 8 -67 25
9 15 23 14 80 -9z m1531 -76 c6 -7 16 -14 22 -14 25 0 72 -54 88 -102 14 -43
16 -74 10 -192 -9 -198 -17 -267 -29 -259 -6 3 -8 53 -5 129 5 118 -2 151 -16
82 -20 -96 -117 -647 -118 -671 -1 -17 -4 -23 -8 -16 -4 6 -6 28 -3 49 3 20 1
46 -5 56 -7 14 5 103 44 334 62 355 66 440 26 517 -12 23 -30 47 -40 52 -9 5
-89 23 -177 41 -219 43 -205 39 -205 64 l0 23 203 -39 c125 -24 206 -45 213
-54z m1440 -38 c4 -16 1 -25 -10 -29 -10 -4 -21 9 -37 49 -13 31 -28 53 -35
50 -6 -2 -100 -70 -209 -151 -186 -138 -253 -182 -215 -142 8 9 114 90 235
180 l220 164 22 -48 c13 -27 25 -60 29 -73z m-4021 -21 c411 -88 431 -93 424
-99 -2 -2 -42 3 -89 11 -47 8 -125 21 -175 30 -98 17 -550 127 -587 143 -23
10 -23 10 2 6 14 -3 205 -43 425 -91z m-848 73 c-2 -7 -28 -94 -56 -193 -88
-305 -111 -369 -126 -353 -5 4 141 532 152 551 7 12 35 8 30 -5z m630 -4 c-3
-3 -12 -4 -19 -1 -8 3 -5 6 6 6 11 1 17 -2 13 -5z m1987 -103 c81 -6 125 -14
164 -31 l53 -23 40 39 c22 22 39 32 38 24 0 -8 -22 -32 -50 -53 -47 -35 -51
-37 -77 -23 -50 26 -106 35 -247 42 -143 6 -163 11 -202 47 -26 23 -27 26 -13
61 l9 25 87 -50 c86 -49 89 -50 198 -58z m-1654 43 c162 -30 333 -62 380 -70
46 -8 87 -17 90 -21 3 -3 -13 -2 -35 2 -22 4 -67 9 -100 11 -48 2 -602 113
-640 128 -28 12 35 1 305 -50z m-797 -144 c3 -118 2 -131 -9 -100 -14 39 -18
143 -7 216 9 63 11 49 16 -116z m1488 56 c172 -36 347 -71 388 -80 40 -9 79
-13 85 -9 6 3 4 -2 -5 -12 -16 -16 -37 -13 -390 59 -421 86 -411 84 -404 97 8
11 -37 19 326 -55z m664 4 c-3 -5 -10 -10 -16 -10 -5 0 -9 5 -9 10 0 6 7 10
16 10 8 0 12 -4 9 -10z m-842 -17 c-7 -2 -19 -2 -25 0 -7 3 -2 5 12 5 14 0 19
-2 13 -5z m50 -10 c-7 -2 -19 -2 -25 0 -7 3 -2 5 12 5 14 0 19 -2 13 -5z m44
-9 c-3 -3 -12 -4 -19 -1 -8 3 -5 6 6 6 11 1 17 -2 13 -5z m782 -23 c9 -6 11
-14 4 -26 -10 -18 -15 -15 -26 18 -7 19 0 21 22 8z m-182 -27 c-3 -3 -12 -4
-19 -1 -8 3 -5 6 6 6 11 1 17 -2 13 -5z m40 -10 c-3 -3 -12 -4 -19 -1 -8 3 -5
6 6 6 11 1 17 -2 13 -5z m-2352 -319 c6 -2 108 -104 228 -228 l217 -225 42
-223 c22 -123 44 -227 47 -231 10 -11 631 -158 668 -158 20 0 140 -25 267 -56
127 -31 255 -62 284 -69 60 -14 67 -18 59 -39 -5 -12 -20 -11 -99 9 -387 98
-1210 296 -1214 293 -2 -3 10 -72 26 -154 16 -82 30 -150 30 -151 0 -2 -6 -3
-13 -3 -8 0 -34 112 -81 358 -38 196 -72 367 -77 378 -4 12 -111 131 -238 264
-127 134 -228 246 -226 250 3 5 20 3 38 -2 17 -6 37 -12 42 -13z m4452 -12
c-9 -9 -20 -13 -24 -9 -4 4 -1 11 7 16 25 16 35 11 17 -7z m-799 -110 l-3 -77
275 -163 c151 -89 276 -167 278 -173 12 -34 -96 16 -323 150 l-250 147 3 79
c2 44 5 87 8 97 11 37 16 14 12 -60z m-1044 -145 c-9 -18 -34 -59 -56 -90
l-39 -58 181 0 c118 0 179 -3 175 -10 -4 -6 -56 -10 -124 -10 -65 0 -145 -3
-178 -6 l-59 -6 -57 -89 c-31 -49 -61 -89 -67 -89 -5 0 -10 2 -10 5 0 13 99
179 168 283 73 108 102 139 66 70z m936 -283 c0 -5 -5 -3 -10 5 -5 8 -10 20
-10 25 0 6 5 3 10 -5 5 -8 10 -19 10 -25z m39 -103 c2 -24 -16 -3 -22 25 -3
16 -8 37 -12 48 -3 11 3 2 14 -20 11 -22 20 -46 20 -53z m-40 -8 c-7 -8 -119
-86 -248 -173 -277 -185 -265 -177 -260 -162 3 9 507 351 518 351 2 0 -2 -7
-10 -16z m-3359 -24 c0 -9 -32 -30 -46 -30 -4 0 1 9 11 20 19 21 35 26 35 10z
m2101 -137 c-12 -20 -14 -14 -5 12 4 9 9 14 11 11 3 -2 0 -13 -6 -23z m739
-238 c0 -2 -60 -44 -132 -93 -155 -103 -158 -105 -158 -98 0 5 280 196 287
196 2 0 3 -2 3 -5z m710 -60 c0 -5 -5 -3 -10 5 -5 8 -10 20 -10 25 0 6 5 3 10
-5 5 -8 10 -19 10 -25z m39 -100 c17 -44 31 -84 30 -90 0 -9 -52 117 -65 160
-14 46 7 4 35 -70z m201 -400 c122 -322 139 -375 133 -410 -5 -21 -54 -54
-309 -206 -167 -100 -304 -186 -304 -193 0 -6 -25 -198 -55 -426 -30 -228 -55
-421 -55 -430 0 -9 13 -1 33 21 17 20 64 72 102 115 39 43 93 103 120 134 28
31 86 96 130 145 104 116 179 199 186 205 3 3 41 46 86 95 154 173 199 212
229 201 19 -7 63 44 -434 -511 -212 -236 -394 -439 -404 -451 -14 -16 -25 -71
-49 -245 -17 -123 -31 -238 -32 -256 -2 -39 12 -35 -327 -88 l-235 -37 -133
-132 c-106 -105 -134 -128 -142 -116 -5 8 -10 24 -10 35 0 35 209 225 247 225
8 0 31 9 51 19 81 42 120 53 275 77 149 23 193 36 183 53 -3 4 -1 22 4 41 l8
35 1 -32 c1 -20 11 -42 26 -58 14 -14 27 -25 29 -25 1 0 6 114 10 252 3 140
11 257 16 262 14 14 12 26 -3 26 -7 0 -18 9 -24 19 -10 15 -6 66 17 248 17
125 32 239 35 252 5 19 3 22 -10 17 -9 -3 -18 0 -20 7 -3 6 -25 120 -50 251
-61 321 -60 342 34 731 38 159 68 291 66 293 -1 2 -29 -6 -61 -17 -94 -32
-466 -132 -505 -136 -41 -4 -398 -100 -448 -121 -18 -8 -56 -30 -85 -50 l-51
-36 55 51 c30 28 75 61 100 75 46 25 851 248 905 251 17 1 54 8 82 15 29 8 55
12 57 9 3 -2 -31 -155 -74 -339 l-79 -334 55 -290 c30 -159 54 -293 54 -297 0
-5 4 -9 8 -9 4 0 18 85 31 190 l24 189 289 171 c220 130 293 169 303 160 26
-21 23 17 -6 77 -34 71 -209 537 -209 556 0 18 12 29 21 20 4 -5 53 -129 109
-278z m-363 218 c-9 -9 -19 -14 -23 -11 -10 10 6 28 24 28 15 0 15 -1 -1 -17z
m-3592 -478 c0 -5 -11 -10 -25 -10 -23 0 -25 4 -28 45 l-3 45 28 -35 c15 -19
28 -39 28 -45z m1573 -12 c-3 -21 1 -143 7 -272 l12 -234 -37 -86 c-53 -122
-92 -202 -97 -198 -2 3 8 31 22 63 l27 59 -12 225 c-6 124 -13 232 -16 241 -4
14 62 199 82 231 11 18 16 6 12 -29z m183 -140 c-8 -16 -5 -22 20 -37 16 -9
29 -22 29 -27 0 -5 -18 1 -40 13 -44 26 -47 33 -23 60 20 22 28 17 14 -9z
m-696 -13 c4 -6 -11 -18 -32 -28 -37 -16 -111 -68 -124 -85 -11 -16 -201 -87
-231 -87 -16 0 -38 -4 -48 -10 -13 -7 -21 -6 -29 4 -9 10 34 33 216 114 126
55 231 101 235 101 4 1 10 -4 13 -9z m-170 -174 c20 -14 22 -55 7 -122 -13
-53 -131 -346 -145 -360 -7 -7 -61 -30 -121 -53 -60 -22 -110 -42 -112 -44 -2
-2 -15 -57 -28 -123 -28 -133 -70 -299 -88 -341 -11 -27 -15 -40 -21 -65 -2
-7 -8 -22 -14 -33 -6 -11 -12 -24 -13 -30 -1 -5 -6 -19 -11 -30 -20 -51 -6 40
51 312 83 404 149 716 154 728 15 35 0 -55 -34 -210 -21 -99 -38 -181 -36
-182 1 -2 61 18 132 45 l129 47 68 165 c62 152 67 169 63 221 -3 31 -8 63 -12
72 -7 21 6 22 31 3z m961 -186 c-25 -36 -58 -78 -73 -92 -16 -14 -63 -73 -107
-132 -43 -59 -80 -105 -83 -102 -3 2 27 48 66 100 39 53 71 101 71 107 0 6 37
61 83 121 67 91 83 107 85 88 3 -14 -13 -47 -42 -90z m-1345 73 c13 -16 12
-17 -3 -4 -17 13 -22 21 -14 21 2 0 10 -8 17 -17z m1069 -452 c0 -8 34 -68 75
-134 42 -66 74 -122 71 -124 -2 -3 -15 12 -29 34 -147 233 -187 301 -187 311
1 13 70 -73 70 -87z m-896 -642 c64 -133 115 -244 111 -247 -3 -3 -7 -3 -10 0
-6 6 -235 477 -235 483 0 3 4 5 8 5 5 0 62 -109 126 -241z m726 -52 c67 -25
589 -240 671 -275 60 -26 75 -48 17 -25 -205 80 -793 324 -801 332 -13 13 22
3 113 -32z m-1073 11 c-3 -8 -6 -5 -6 6 -1 11 2 17 5 13 3 -3 4 -12 1 -19z
m3822 -182 c-11 -11 -120 -33 -124 -26 -3 5 18 13 47 18 63 11 83 13 77 8z
m-3295 -51 c15 -8 32 -15 36 -15 5 0 151 -65 326 -144 273 -123 322 -149 341
-177 19 -28 67 -53 315 -167 361 -165 348 -163 468 -73 l85 63 -55 -57 c-30
-32 -77 -68 -105 -81 -91 -43 -103 -40 -459 123 -177 80 -323 148 -325 150 -3
2 0 8 6 14 8 8 20 6 42 -5 17 -9 31 -13 31 -9 -1 28 -70 66 -350 193 -173 78
-324 147 -334 152 -18 10 -19 7 -13 -53 9 -77 1 -73 -14 7 -7 40 -18 65 -32
76 -28 22 -4 24 37 3z m2081 -103 c-42 -37 -177 -122 -194 -122 -28 0 -26 9
10 48 20 22 39 32 59 32 20 0 31 6 35 19 6 19 25 27 75 30 13 0 20 -3 15 -7z
m842 1 c-9 -8 -279 -54 -285 -48 -8 8 25 16 135 35 119 20 160 23 150 13z
m-2845 -125 c21 -23 36 -43 33 -46 -8 -8 -52 26 -75 58 -32 45 -4 37 42 -12z
m1486 -41 c60 5 72 3 72 -9 0 -17 -40 -28 -97 -28 -36 0 -101 29 -122 54 -11
13 -5 12 30 -4 36 -16 57 -18 117 -13z"/>
<path d="M4852 5490 c0 -14 6 -41 13 -60 18 -46 18 -28 1 35 -9 30 -14 40 -14
25z"/>
<path d="M4881 5374 c0 -11 3 -14 6 -6 3 7 2 16 -1 19 -3 4 -6 -2 -5 -13z"/>
<path d="M4891 5334 c0 -11 3 -14 6 -6 3 7 2 16 -1 19 -3 4 -6 -2 -5 -13z"/>
<path d="M5908 6077 c6 -7 42 -33 79 -59 l68 -45 193 -12 c107 -7 204 -16 217
-21 43 -16 104 -80 114 -119 6 -20 13 -247 17 -505 l7 -468 23 -27 c16 -17 23
-21 23 -11 1 8 15 248 32 532 32 516 32 516 12 554 -36 70 -40 71 -419 130
-192 30 -355 56 -363 59 -10 4 -11 2 -3 -8z"/>
<path d="M414 4908 c13 -349 25 -489 49 -538 20 -40 22 -62 23 -195 1 -176 14
-455 22 -455 3 0 13 7 22 15 8 8 69 52 135 99 92 66 122 83 132 74 44 -36 25
34 -153 558 -207 610 -208 614 -225 614 -9 0 -10 -42 -5 -172z"/>
<path d="M6590 4811 c0 -5 7 -26 16 -47 16 -36 17 -38 26 -18 8 16 6 28 -7 48
-17 26 -35 35 -35 17z"/>
<path d="M502 3658 c-5 -13 2 -207 14 -433 12 -225 23 -431 23 -457 1 -47 2
-48 167 -225 92 -98 171 -178 177 -178 6 0 36 113 66 250 46 204 59 250 72
247 22 -3 104 356 86 375 -31 31 -530 392 -536 389 -4 -3 -15 8 -25 25 -21 35
-34 37 -44 7z"/>
<path d="M557 2545 c13 -274 22 -314 140 -619 54 -140 83 -187 83 -136 0 12
23 128 51 257 l50 234 -108 116 c-59 64 -133 143 -164 177 l-57 61 5 -90z"/>
<path d="M584 2015 c5 -151 19 -197 75 -258 24 -26 188 -113 197 -104 2 2 -19
18 -46 36 -29 19 -60 50 -74 74 -21 37 -102 236 -142 352 -13 37 -14 29 -10
-100z"/>
</g>
</svg>
